<?xml version="1.0" encoding="UTF-8"?> <svg xmlns="http://www.w3.org/2000/svg" width="260" height="173" viewBox="0 0 260 173" fill="none"><g filter="url(#filter0_i_271_17890)"><path d="M0 17.4922C0 8.10333 7.61116 0.492188 17 0.492188H243C252.389 0.492188 260 8.10335 260 17.4922V155.644C260 165.033 252.389 172.644 243 172.644H17C7.61116 172.644 0 165.033 0 155.644V17.4922Z" fill="#181818"></path><path d="M17 1.04654H243C252.083 1.04654 259.446 8.40951 259.446 17.4922V155.644C259.446 164.727 252.083 172.09 243 172.09H17C7.91732 172.09 0.554348 164.727 0.554348 155.644V17.4922C0.554348 8.40949 7.91732 1.04654 17 1.04654Z" stroke="#363636" stroke-width="1.1087"></path><rect x="26.6084" y="27.1006" width="39.913" height="39.913" rx="19.9565" fill="#2A2B2E"></rect><path opacity="0.2" d="M53.4931 39.4346V53.9862H48.6426V39.4346H53.4931Z" fill="#0085FF"></path><path d="M54.879 53.2928H54.1861V39.4341C54.1861 39.2504 54.1131 39.0741 53.9831 38.9442C53.8532 38.8142 53.6769 38.7412 53.4932 38.7412H48.6426C48.4588 38.7412 48.2826 38.8142 48.1526 38.9442C48.0227 39.0741 47.9497 39.2504 47.9497 39.4341V42.8988H43.7921C43.6083 42.8988 43.432 42.9718 43.3021 43.1018C43.1721 43.2317 43.0991 43.408 43.0991 43.5918V47.0564H39.6345C39.4507 47.0564 39.2744 47.1294 39.1445 47.2594C39.0145 47.3893 38.9415 47.5656 38.9415 47.7494V53.2928H38.2486C38.0648 53.2928 37.8886 53.3658 37.7586 53.4958C37.6287 53.6257 37.5557 53.802 37.5557 53.9858C37.5557 54.1696 37.6287 54.3458 37.7586 54.4758C37.8886 54.6057 38.0648 54.6787 38.2486 54.6787H54.879C55.0628 54.6787 55.2391 54.6057 55.369 54.4758C55.499 54.3458 55.572 54.1696 55.572 53.9858C55.572 53.802 55.499 53.6257 55.369 53.4958C55.2391 53.3658 55.0628 53.2928 54.879 53.2928ZM49.3356 40.1271H52.8002V53.2928H49.3356V40.1271ZM44.485 44.2847H47.9497V53.2928H44.485V44.2847ZM40.3274 48.4423H43.0991V53.2928H40.3274V48.4423Z" fill="#0085FF"></path><path d="M33.2385 101.334V81.1761H34.5299V101.334H33.2385ZM36.963 87.6251C36.8896 86.9374 36.5798 86.402 36.0339 86.0187C35.4932 85.6355 34.7898 85.4439 33.9236 85.4439C33.3146 85.4439 32.7923 85.5358 32.3566 85.7195C31.9209 85.9032 31.5876 86.1526 31.3566 86.4676C31.1256 86.7825 31.0075 87.1421 31.0022 87.5463C31.0022 87.8823 31.0784 88.1737 31.2306 88.4204C31.3881 88.6671 31.6007 88.8771 31.8684 89.0503C32.1361 89.2183 32.4327 89.36 32.7582 89.4755C33.0837 89.591 33.4118 89.6881 33.7425 89.7669L35.2543 90.1448C35.8633 90.2866 36.4486 90.4782 37.0103 90.7197C37.5772 90.9611 38.0838 91.2656 38.53 91.6331C38.9815 92.0005 39.3384 92.4441 39.6009 92.9638C39.8634 93.4835 39.9946 94.0925 39.9946 94.7907C39.9946 95.7356 39.7532 96.5676 39.2702 97.2868C38.7873 98.0007 38.0891 98.5598 37.1757 98.964C36.2675 99.363 35.1677 99.5625 33.8763 99.5625C32.6217 99.5625 31.5324 99.3682 30.6085 98.9798C29.6899 98.5913 28.9707 98.0244 28.451 97.2789C27.9365 96.5335 27.6583 95.6253 27.6163 94.5544H30.4904C30.5324 95.1161 30.7056 95.5833 31.0101 95.9561C31.3146 96.3288 31.7109 96.607 32.1991 96.7907C32.6926 96.9745 33.2438 97.0663 33.8527 97.0663C34.4879 97.0663 35.0444 96.9718 35.5221 96.7828C36.005 96.5886 36.383 96.3209 36.656 95.9797C36.9289 95.6332 37.068 95.229 37.0733 94.767C37.068 94.3471 36.9447 94.0006 36.7032 93.7276C36.4617 93.4494 36.1231 93.2184 35.6874 93.0347C35.257 92.8457 34.753 92.6777 34.1756 92.5307L32.3409 92.0583C31.0127 91.7171 29.9628 91.2 29.1912 90.5071C28.4247 89.8089 28.0415 88.8823 28.0415 87.7274C28.0415 86.7773 28.2987 85.9452 28.8132 85.2313C29.3329 84.5174 30.039 83.9636 30.9314 83.5698C31.8238 83.1709 32.8343 82.9714 33.963 82.9714C35.1073 82.9714 36.11 83.1709 36.9709 83.5698C37.8371 83.9636 38.5169 84.5121 39.0104 85.2156C39.5038 85.9137 39.7584 86.7169 39.7742 87.6251H36.963ZM49.0008 83.1919V99.3184H46.0795V86.0345H45.985L42.2132 88.444V85.7668L46.2212 83.1919H49.0008ZM58.883 99.5388C57.7491 99.5388 56.7412 99.3446 55.8593 98.9561C54.9826 98.5677 54.2897 98.027 53.7805 97.334C53.2713 96.6411 53.0009 95.8406 52.9694 94.9324H55.9302C55.9564 95.3681 56.1008 95.7487 56.3633 96.0742C56.6257 96.3944 56.9748 96.6437 57.4105 96.8222C57.8462 97.0007 58.3344 97.0899 58.8751 97.0899C59.4526 97.0899 59.9644 96.9902 60.4106 96.7907C60.8568 96.586 61.2059 96.3025 61.4579 95.9403C61.7099 95.5781 61.8332 95.1608 61.828 94.6883C61.8332 94.2001 61.7072 93.7696 61.45 93.3969C61.1928 93.0242 60.8201 92.7329 60.3319 92.5229C59.8489 92.3129 59.2662 92.2079 58.5838 92.2079H57.1586V89.9559H58.5838C59.1455 89.9559 59.6363 89.8587 60.0563 89.6645C60.4815 89.4703 60.8148 89.1973 61.0563 88.8456C61.2978 88.4886 61.4159 88.0765 61.4107 87.6093C61.4159 87.1526 61.3135 86.7563 61.1036 86.4203C60.8988 86.0791 60.6075 85.814 60.2295 85.625C59.8568 85.436 59.4185 85.3415 58.9145 85.3415C58.4211 85.3415 57.9644 85.4308 57.5444 85.6093C57.1244 85.7878 56.7858 86.0424 56.5286 86.3731C56.2714 86.6985 56.1349 87.087 56.1191 87.5385H53.308C53.329 86.6356 53.5889 85.8429 54.0876 85.1604C54.5915 84.4728 55.2635 83.9373 56.1034 83.5541C56.9433 83.1656 57.8856 82.9714 58.9303 82.9714C60.0064 82.9714 60.9408 83.1735 61.7335 83.5777C62.5314 83.9767 63.1482 84.5148 63.5839 85.1919C64.0197 85.8691 64.2375 86.6172 64.2375 87.4361C64.2428 88.3443 63.975 89.1054 63.4343 89.7196C62.8989 90.3338 62.1955 90.7354 61.324 90.9244V91.0504C62.4579 91.2079 63.3267 91.6278 63.9304 92.3103C64.5394 92.9875 64.8412 93.83 64.836 94.8379C64.836 95.7408 64.5787 96.5492 64.0643 97.2632C63.5551 97.9719 62.8516 98.5283 61.954 98.9325C61.0616 99.3367 60.0379 99.5388 58.883 99.5388ZM67.2474 96.3261V94.0032L74.0902 83.1919H76.0272V86.4991H74.8461L70.2397 93.7985V93.9245H79.7911V96.3261H67.2474ZM74.9406 99.3184V95.6175L74.9721 94.5781V83.1919H77.7281V99.3184H74.9406ZM83.6397 99.4916C83.162 99.4916 82.7525 99.3236 82.4113 98.9876C82.0701 98.6517 81.9021 98.2422 81.9073 97.7593C81.9021 97.2868 82.0701 96.8826 82.4113 96.5466C82.7525 96.2107 83.162 96.0427 83.6397 96.0427C84.1016 96.0427 84.5032 96.2107 84.8444 96.5466C85.1909 96.8826 85.3668 97.2868 85.372 97.7593C85.3668 98.0795 85.2828 98.3708 85.12 98.6333C84.9626 98.8958 84.7526 99.1058 84.4901 99.2632C84.2329 99.4155 83.9494 99.4916 83.6397 99.4916ZM93.6164 99.6255C92.3197 99.6255 91.2068 99.2974 90.2777 98.6412C89.3538 97.9797 88.6425 97.027 88.1438 95.7828C87.6503 94.5334 87.4036 93.0295 87.4036 91.2709C87.4088 89.5123 87.6582 88.0162 88.1516 86.7825C88.6503 85.5437 89.3616 84.5987 90.2856 83.9478C91.2147 83.2969 92.325 82.9714 93.6164 82.9714C94.9078 82.9714 96.018 83.2969 96.9472 83.9478C97.8763 84.5987 98.5877 85.5437 99.0811 86.7825C99.5798 88.0214 99.8292 89.5175 99.8292 91.2709C99.8292 93.0347 99.5798 94.5413 99.0811 95.7907C98.5877 97.0348 97.8763 97.985 96.9472 98.6412C96.0233 99.2974 94.913 99.6255 93.6164 99.6255ZM93.6164 97.1608C94.6243 97.1608 95.4196 96.6647 96.0023 95.6726C96.5902 94.6752 96.8842 93.2079 96.8842 91.2709C96.8842 89.99 96.7503 88.9138 96.4826 88.0424C96.2149 87.171 95.8369 86.5148 95.3487 86.0739C94.8605 85.6276 94.2831 85.4045 93.6164 85.4045C92.6137 85.4045 91.821 85.9032 91.2383 86.9007C90.6557 87.8928 90.3617 89.3495 90.3564 91.2709C90.3512 92.557 90.4798 93.6384 90.7423 94.5151C91.01 95.3917 91.388 96.0532 91.8762 96.4994C92.3644 96.9403 92.9444 97.1608 93.6164 97.1608ZM108.406 99.6255C107.11 99.6255 105.997 99.2974 105.068 98.6412C104.144 97.9797 103.432 97.027 102.934 95.7828C102.44 94.5334 102.193 93.0295 102.193 91.2709C102.199 89.5123 102.448 88.0162 102.941 86.7825C103.44 85.5437 104.151 84.5987 105.075 83.9478C106.005 83.2969 107.115 82.9714 108.406 82.9714C109.698 82.9714 110.808 83.2969 111.737 83.9478C112.666 84.5987 113.377 85.5437 113.871 86.7825C114.37 88.0214 114.619 89.5175 114.619 91.2709C114.619 93.0347 114.37 94.5413 113.871 95.7907C113.377 97.0348 112.666 97.985 111.737 98.6412C110.813 99.2974 109.703 99.6255 108.406 99.6255ZM108.406 97.1608C109.414 97.1608 110.209 96.6647 110.792 95.6726C111.38 94.6752 111.674 93.2079 111.674 91.2709C111.674 89.99 111.54 88.9138 111.272 88.0424C111.005 87.171 110.627 86.5148 110.139 86.0739C109.65 85.6276 109.073 85.4045 108.406 85.4045C107.404 85.4045 106.611 85.9032 106.028 86.9007C105.445 87.8928 105.152 89.3495 105.146 91.2709C105.141 92.557 105.27 93.6384 105.532 94.5151C105.8 95.3917 106.178 96.0532 106.666 96.4994C107.154 96.9403 107.734 97.1608 108.406 97.1608Z" fill="#FCFCFD" fill-opacity="0.95"></path><path d="M27.9754 110.574H29.6069L33.4433 119.944H33.5755L37.4119 110.574H39.0434V121.862H37.7646V113.286H37.6544L34.1267 121.862H32.8921L29.3644 113.286H29.2541V121.862H27.9754V110.574ZM44.0993 122.061C43.5628 122.061 43.0759 121.96 42.6386 121.758C42.2013 121.552 41.8541 121.256 41.5969 120.87C41.3396 120.481 41.211 120.01 41.211 119.459C41.211 118.974 41.3066 118.581 41.4976 118.28C41.6887 117.975 41.9441 117.736 42.2638 117.563C42.5835 117.39 42.9363 117.262 43.3221 117.177C43.7116 117.089 44.103 117.019 44.4962 116.968C45.0106 116.902 45.4277 116.852 45.7474 116.819C46.0707 116.782 46.3059 116.721 46.4529 116.637C46.6036 116.552 46.6789 116.405 46.6789 116.196V116.152C46.6789 115.608 46.5301 115.185 46.2324 114.884C45.9385 114.583 45.492 114.432 44.893 114.432C44.272 114.432 43.7851 114.568 43.4323 114.84C43.0796 115.112 42.8315 115.402 42.6882 115.711L41.4535 115.27C41.674 114.756 41.968 114.355 42.3355 114.068C42.7066 113.778 43.1108 113.576 43.5481 113.462C43.9891 113.344 44.4227 113.286 44.8489 113.286C45.1208 113.286 45.4332 113.319 45.786 113.385C46.1424 113.447 46.486 113.578 46.8167 113.776C47.1511 113.975 47.4285 114.274 47.649 114.675C47.8695 115.075 47.9797 115.612 47.9797 116.284V121.862H46.6789V120.716H46.6128C46.5246 120.9 46.3776 121.096 46.1718 121.306C45.966 121.515 45.6923 121.693 45.3505 121.84C45.0088 121.987 44.5917 122.061 44.0993 122.061ZM44.2977 120.892C44.8122 120.892 45.2458 120.791 45.5986 120.589C45.955 120.387 46.2232 120.126 46.4033 119.806C46.587 119.487 46.6789 119.15 46.6789 118.798V117.607C46.6238 117.673 46.5025 117.734 46.3151 117.789C46.1314 117.84 45.9182 117.886 45.6757 117.927C45.4369 117.963 45.2035 117.997 44.9757 118.026C44.7515 118.052 44.5696 118.074 44.43 118.092C44.0919 118.136 43.7759 118.208 43.482 118.307C43.1917 118.403 42.9565 118.548 42.7764 118.743C42.6 118.934 42.5118 119.195 42.5118 119.525C42.5118 119.977 42.679 120.319 43.0134 120.55C43.3515 120.778 43.7796 120.892 44.2977 120.892ZM51.3241 113.396L53.3525 116.857L55.3809 113.396H56.8802L54.1463 117.629L56.8802 121.862H55.3809L53.3525 118.577L51.3241 121.862H49.8249L52.5147 117.629L49.8249 113.396H51.3241ZM59.6844 121.95C59.4125 121.95 59.1792 121.853 58.9844 121.658C58.7896 121.464 58.6923 121.23 58.6923 120.958C58.6923 120.686 58.7896 120.453 58.9844 120.258C59.1792 120.064 59.4125 119.966 59.6844 119.966C59.9563 119.966 60.1897 120.064 60.3844 120.258C60.5792 120.453 60.6766 120.686 60.6766 120.958C60.6766 121.138 60.6306 121.304 60.5388 121.454C60.4506 121.605 60.3312 121.726 60.1805 121.818C60.0335 121.906 59.8682 121.95 59.6844 121.95ZM71.0363 121.862H67.5528V110.574H71.1907C72.2857 110.574 73.2228 110.8 74.0018 111.252C74.7808 111.7 75.3779 112.345 75.7932 113.186C76.2084 114.024 76.416 115.027 76.416 116.196C76.416 117.372 76.2066 118.384 75.7877 119.233C75.3688 120.078 74.7588 120.729 73.9577 121.184C73.1566 121.636 72.1828 121.862 71.0363 121.862ZM68.9197 120.65H70.9482C71.8815 120.65 72.655 120.47 73.2687 120.109C73.8824 119.749 74.3399 119.237 74.6412 118.572C74.9425 117.907 75.0932 117.115 75.0932 116.196C75.0932 115.285 74.9443 114.5 74.6467 113.842C74.349 113.181 73.9044 112.674 73.3128 112.321C72.7212 111.965 71.9844 111.786 71.1025 111.786H68.9197V120.65ZM78.5326 121.862V113.396H79.7894V114.675H79.8776C80.0319 114.256 80.3112 113.916 80.7154 113.655C81.1196 113.394 81.5753 113.264 82.0824 113.264C82.1779 113.264 82.2973 113.265 82.4406 113.269C82.5839 113.273 82.6923 113.278 82.7658 113.286V114.609C82.7217 114.598 82.6207 114.581 82.4627 114.559C82.3083 114.533 82.1448 114.52 81.9721 114.52C81.5606 114.52 81.1931 114.607 80.8697 114.779C80.55 114.948 80.2965 115.184 80.1091 115.485C79.9253 115.783 79.8335 116.122 79.8335 116.505V121.862H78.5326ZM86.7992 122.061C86.2627 122.061 85.7758 121.96 85.3386 121.758C84.9013 121.552 84.554 121.256 84.2968 120.87C84.0396 120.481 83.911 120.01 83.911 119.459C83.911 118.974 84.0065 118.581 84.1976 118.28C84.3887 117.975 84.644 117.736 84.9637 117.563C85.2834 117.39 85.6362 117.262 86.022 117.177C86.4116 117.089 86.8029 117.019 87.1961 116.968C87.7105 116.902 88.1276 116.852 88.4473 116.819C88.7707 116.782 89.0059 116.721 89.1528 116.637C89.3035 116.552 89.3788 116.405 89.3788 116.196V116.152C89.3788 115.608 89.23 115.185 88.9324 114.884C88.6384 114.583 88.1919 114.432 87.593 114.432C86.9719 114.432 86.4851 114.568 86.1323 114.84C85.7795 115.112 85.5315 115.402 85.3882 115.711L84.1535 115.27C84.374 114.756 84.6679 114.355 85.0354 114.068C85.4065 113.778 85.8108 113.576 86.248 113.462C86.689 113.344 87.1226 113.286 87.5489 113.286C87.8208 113.286 88.1331 113.319 88.4859 113.385C88.8423 113.447 89.1859 113.578 89.5166 113.776C89.851 113.975 90.1285 114.274 90.3489 114.675C90.5694 115.075 90.6797 115.612 90.6797 116.284V121.862H89.3788V120.716H89.3127C89.2245 120.9 89.0775 121.096 88.8717 121.306C88.666 121.515 88.3922 121.693 88.0505 121.84C87.7087 121.987 87.2916 122.061 86.7992 122.061ZM86.9977 120.892C87.5121 120.892 87.9457 120.791 88.2985 120.589C88.6549 120.387 88.9232 120.126 89.1032 119.806C89.287 119.487 89.3788 119.15 89.3788 118.798V117.607C89.3237 117.673 89.2025 117.734 89.015 117.789C88.8313 117.84 88.6182 117.886 88.3757 117.927C88.1368 117.963 87.9035 117.997 87.6756 118.026C87.4515 118.052 87.2696 118.074 87.13 118.092C86.7919 118.136 86.4759 118.208 86.1819 118.307C85.8916 118.403 85.6564 118.548 85.4764 118.743C85.3 118.934 85.2118 119.195 85.2118 119.525C85.2118 119.977 85.379 120.319 85.7134 120.55C86.0514 120.778 86.4795 120.892 86.9977 120.892ZM94.9721 121.862L92.3925 113.396H93.7595L95.5895 119.878H95.6777L97.4856 113.396H98.8746L100.66 119.856H100.749L102.579 113.396H103.946L101.366 121.862H100.087L98.2352 115.358H98.1029L96.2509 121.862H94.9721ZM108.574 122.039C107.869 122.039 107.246 121.86 106.706 121.504C106.166 121.144 105.743 120.637 105.438 119.983C105.133 119.325 104.981 118.548 104.981 117.651C104.981 116.762 105.133 115.99 105.438 115.336C105.743 114.682 106.167 114.177 106.711 113.82C107.255 113.464 107.883 113.286 108.596 113.286C109.148 113.286 109.583 113.378 109.903 113.561C110.226 113.741 110.472 113.947 110.641 114.179C110.814 114.406 110.948 114.594 111.044 114.741H111.154V110.574H112.455V121.862H111.198V120.561H111.044C110.948 120.716 110.812 120.911 110.636 121.146C110.459 121.377 110.208 121.585 109.881 121.769C109.554 121.949 109.118 122.039 108.574 122.039ZM108.751 120.87C109.272 120.87 109.713 120.734 110.074 120.462C110.434 120.187 110.707 119.806 110.895 119.321C111.082 118.833 111.176 118.268 111.176 117.629C111.176 116.997 111.084 116.444 110.9 115.97C110.717 115.492 110.445 115.121 110.085 114.857C109.724 114.588 109.28 114.454 108.751 114.454C108.199 114.454 107.74 114.596 107.373 114.879C107.009 115.158 106.735 115.538 106.551 116.02C106.371 116.497 106.281 117.034 106.281 117.629C106.281 118.232 106.373 118.779 106.557 119.272C106.744 119.76 107.02 120.15 107.384 120.44C107.751 120.727 108.207 120.87 108.751 120.87ZM118.457 122.039C117.693 122.039 117.022 121.857 116.445 121.493C115.872 121.129 115.424 120.62 115.101 119.966C114.781 119.312 114.621 118.548 114.621 117.673C114.621 116.791 114.781 116.021 115.101 115.364C115.424 114.706 115.872 114.195 116.445 113.831C117.022 113.468 117.693 113.286 118.457 113.286C119.222 113.286 119.89 113.468 120.464 113.831C121.041 114.195 121.489 114.706 121.809 115.364C122.132 116.021 122.294 116.791 122.294 117.673C122.294 118.548 122.132 119.312 121.809 119.966C121.489 120.62 121.041 121.129 120.464 121.493C119.89 121.857 119.222 122.039 118.457 122.039ZM118.457 120.87C119.038 120.87 119.516 120.721 119.89 120.424C120.265 120.126 120.543 119.735 120.723 119.25C120.903 118.765 120.993 118.239 120.993 117.673C120.993 117.107 120.903 116.58 120.723 116.091C120.543 115.603 120.265 115.208 119.89 114.906C119.516 114.605 119.038 114.454 118.457 114.454C117.877 114.454 117.399 114.605 117.024 114.906C116.649 115.208 116.372 115.603 116.192 116.091C116.012 116.58 115.922 117.107 115.922 117.673C115.922 118.239 116.012 118.765 116.192 119.25C116.372 119.735 116.649 120.126 117.024 120.424C117.399 120.721 117.877 120.87 118.457 120.87ZM125.909 121.862L123.33 113.396H124.697L126.527 119.878H126.615L128.423 113.396H129.812L131.598 119.856H131.686L133.516 113.396H134.883L132.303 121.862H131.025L129.173 115.358H129.04L127.188 121.862H125.909ZM137.904 116.769V121.862H136.603V113.396H137.859V114.719H137.97C138.168 114.289 138.469 113.943 138.874 113.683C139.278 113.418 139.8 113.286 140.439 113.286C141.012 113.286 141.514 113.403 141.944 113.638C142.374 113.87 142.708 114.223 142.947 114.697C143.186 115.167 143.305 115.762 143.305 116.483V121.862H142.004V116.571C142.004 115.906 141.832 115.388 141.486 115.016C141.141 114.642 140.667 114.454 140.064 114.454C139.649 114.454 139.278 114.544 138.951 114.724C138.627 114.904 138.372 115.167 138.185 115.513C137.997 115.858 137.904 116.277 137.904 116.769Z" fill="#FCFCFD" fill-opacity="0.8"></path><rect x="180.674" y="105.645" width="52.7174" height="20.4348" rx="10.2174" fill="#FF464F" fill-opacity="0.15"></rect><path d="M195.944 117.135L192.202 120.877C192.144 120.935 192.075 120.981 191.999 121.012C191.923 121.044 191.842 121.06 191.76 121.06C191.678 121.06 191.597 121.044 191.521 121.012C191.445 120.981 191.376 120.935 191.318 120.877L187.577 117.135C187.459 117.018 187.394 116.859 187.394 116.693C187.394 116.527 187.459 116.368 187.577 116.251C187.694 116.134 187.853 116.068 188.018 116.068C188.184 116.068 188.343 116.134 188.46 116.251L191.137 118.928V111.289C191.137 111.123 191.203 110.965 191.32 110.848C191.437 110.731 191.595 110.665 191.761 110.665C191.926 110.665 192.085 110.731 192.202 110.848C192.319 110.965 192.384 111.123 192.384 111.289V118.928L195.061 116.251C195.178 116.134 195.337 116.068 195.503 116.068C195.669 116.068 195.828 116.134 195.945 116.251C196.062 116.368 196.128 116.527 196.128 116.693C196.128 116.858 196.062 117.017 195.945 117.134L195.944 117.135Z" fill="#FF464F"></path><path d="M205.817 111.799V119.862H204.356V113.22H204.309L202.423 114.425V113.087L204.427 111.799H205.817ZM208.314 119.949C208.075 119.949 207.87 119.865 207.7 119.697C207.529 119.529 207.445 119.324 207.448 119.083C207.445 118.847 207.529 118.644 207.7 118.476C207.87 118.308 208.075 118.224 208.314 118.224C208.545 118.224 208.746 118.308 208.916 118.476C209.089 118.644 209.177 118.847 209.18 119.083C209.177 119.243 209.135 119.389 209.054 119.52C208.975 119.651 208.87 119.756 208.739 119.835C208.61 119.911 208.469 119.949 208.314 119.949ZM210.49 118.366V117.205L213.911 111.799H214.88V113.453H214.289L211.986 117.102V117.165H216.762V118.366H210.49ZM214.337 119.862V118.012L214.352 117.492V111.799H215.73V119.862H214.337ZM222.331 118.35V117.925C222.331 117.613 222.397 117.325 222.528 117.063C222.662 116.801 222.856 116.589 223.111 116.429C223.365 116.269 223.674 116.189 224.036 116.189C224.409 116.189 224.721 116.269 224.973 116.429C225.225 116.587 225.415 116.797 225.544 117.059C225.675 117.322 225.741 117.61 225.741 117.925V118.35C225.741 118.663 225.675 118.95 225.544 119.213C225.413 119.475 225.22 119.686 224.965 119.847C224.713 120.007 224.403 120.087 224.036 120.087C223.668 120.087 223.357 120.007 223.103 119.847C222.848 119.686 222.655 119.475 222.524 119.213C222.395 118.95 222.331 118.663 222.331 118.35ZM223.359 117.925V118.35C223.359 118.558 223.409 118.748 223.508 118.921C223.608 119.095 223.784 119.181 224.036 119.181C224.29 119.181 224.465 119.096 224.559 118.925C224.657 118.752 224.705 118.56 224.705 118.35V117.925C224.705 117.715 224.659 117.524 224.567 117.35C224.475 117.175 224.298 117.087 224.036 117.087C223.789 117.087 223.615 117.175 223.512 117.35C223.41 117.524 223.359 117.715 223.359 117.925ZM218.232 113.736V113.311C218.232 112.996 218.299 112.707 218.433 112.445C218.567 112.182 218.761 111.972 219.016 111.815C219.271 111.655 219.579 111.575 219.941 111.575C220.311 111.575 220.622 111.655 220.874 111.815C221.129 111.972 221.321 112.182 221.449 112.445C221.578 112.707 221.642 112.996 221.642 113.311V113.736C221.642 114.051 221.576 114.34 221.445 114.602C221.317 114.862 221.125 115.071 220.87 115.228C220.616 115.386 220.306 115.465 219.941 115.465C219.571 115.465 219.259 115.386 219.004 115.228C218.752 115.071 218.561 114.861 218.429 114.598C218.298 114.336 218.232 114.048 218.232 113.736ZM219.268 113.311V113.736C219.268 113.946 219.317 114.138 219.414 114.311C219.513 114.482 219.689 114.567 219.941 114.567C220.193 114.567 220.366 114.482 220.461 114.311C220.558 114.138 220.607 113.946 220.607 113.736V113.311C220.607 113.101 220.561 112.909 220.469 112.736C220.377 112.56 220.201 112.472 219.941 112.472C219.692 112.472 219.517 112.56 219.418 112.736C219.318 112.912 219.268 113.104 219.268 113.311ZM218.681 119.862L224.225 111.799H225.209L219.666 119.862H218.681Z" fill="#FF464F"></path><path fill-rule="evenodd" clip-rule="evenodd" d="M233.391 142.71C233.391 144.547 231.697 146.036 229.608 146.036L30.3906 146.036C28.3016 146.036 26.608 144.547 26.608 142.71C26.608 140.873 28.3015 139.384 30.3906 139.384L229.608 139.384C231.697 139.384 233.391 140.873 233.391 142.71Z" fill="url(#paint0_linear_271_17890)"></path></g><defs><filter id="filter0_i_271_17890" x="0" y="0.492188" width="260" height="172.152" filterUnits="userSpaceOnUse" color-interpolation-filters="sRGB"><feFlood flood-opacity="0" result="BackgroundImageFix"></feFlood><feBlend mode="normal" in="SourceGraphic" in2="BackgroundImageFix" result="shape"></feBlend><feColorMatrix in="SourceAlpha" type="matrix" values="0 0 0 0 0 0 0 0 0 0 0 0 0 0 0 0 0 0 127 0" result="hardAlpha"></feColorMatrix><feMorphology radius="17.7391" operator="erode" in="SourceAlpha" result="effect1_innerShadow_271_17890"></feMorphology><feOffset></feOffset><feGaussianBlur stdDeviation="44.3478"></feGaussianBlur><feComposite in2="hardAlpha" operator="arithmetic" k2="-1" k3="1"></feComposite><feColorMatrix type="matrix" values="0 0 0 0 0.324191 0 0 0 0 0.450007 0 0 0 0 0.56429 0 0 0 0.03 0"></feColorMatrix><feBlend mode="normal" in2="shape" result="effect1_innerShadow_271_17890"></feBlend></filter><linearGradient id="paint0_linear_271_17890" x1="26.608" y1="141.602" x2="233.391" y2="141.602" gradientUnits="userSpaceOnUse"><stop stop-color="#25C685"></stop><stop offset="0.615" stop-color="#25C685"></stop><stop offset="0.6151" stop-color="white" stop-opacity="0.4"></stop><stop offset="1" stop-color="white" stop-opacity="0.4"></stop></linearGradient></defs></svg> 