<?xml version="1.0" encoding="UTF-8"?> <svg xmlns="http://www.w3.org/2000/svg" width="260" height="177" viewBox="0 0 260 177" fill="none"><g filter="url(#filter0_i_271_17891)"><path d="M0 17C0 7.61116 7.61116 0 17 0H243C252.389 0 260 7.61116 260 17V160C260 169.389 252.389 177 243 177H17C7.61116 177 0 169.389 0 160V17Z" fill="#181818"></path><path d="M17 0.554348H243C252.083 0.554348 259.446 7.91732 259.446 17V160C259.446 169.083 252.083 176.446 243 176.446H17C7.91732 176.446 0.554348 169.083 0.554348 160V17C0.554348 7.91732 7.91732 0.554348 17 0.554348Z" stroke="#363636" stroke-width="1.1087"></path><rect x="26.6084" y="26.6084" width="39.913" height="39.913" rx="19.9565" fill="#2A2B2E"></rect><path opacity="0.2" d="M40.3274 43.0999L43.0991 50.0292C43.0991 51.5597 41.3668 52.108 40.3274 52.108C39.288 52.108 37.5557 51.5597 37.5557 50.0292L40.3274 43.0999ZM52.8002 40.3281L50.0285 47.2575C50.0285 48.788 51.7608 49.3363 52.8002 49.3363C53.8396 49.3363 55.572 48.788 55.572 47.2575L52.8002 40.3281Z" fill="#0085FF"></path><path d="M56.2161 46.9973L53.4444 40.068C53.3833 39.9153 53.27 39.7894 53.1247 39.7126C52.9793 39.6358 52.8114 39.6132 52.6509 39.6488L47.2573 40.8475V38.942C47.2573 38.7582 47.1843 38.5819 47.0544 38.452C46.9244 38.322 46.7482 38.249 46.5644 38.249C46.3806 38.249 46.2044 38.322 46.0744 38.452C45.9445 38.5819 45.8714 38.7582 45.8714 38.942V41.1576L40.1773 42.4231C40.0675 42.4473 39.9652 42.4979 39.8794 42.5705C39.7935 42.6431 39.7266 42.7355 39.6844 42.8397V42.8449L36.9127 49.7691C36.8795 49.8517 36.8627 49.9399 36.8633 50.0289C36.8633 52.048 38.9889 52.8007 40.328 52.8007C41.6671 52.8007 43.7926 52.048 43.7926 50.0289C43.7932 49.9399 43.7764 49.8517 43.7433 49.7691L41.2738 43.5993L45.8714 42.5799V53.4936H44.4856C44.3018 53.4936 44.1255 53.5666 43.9956 53.6965C43.8656 53.8265 43.7926 54.0027 43.7926 54.1865C43.7926 54.3703 43.8656 54.5466 43.9956 54.6765C44.1255 54.8065 44.3018 54.8795 44.4856 54.8795H48.6432C48.827 54.8795 49.0032 54.8065 49.1332 54.6765C49.2631 54.5466 49.3361 54.3703 49.3361 54.1865C49.3361 54.0027 49.2631 53.8265 49.1332 53.6965C49.0032 53.5666 48.827 53.4936 48.6432 53.4936H47.2573V42.2698L51.6748 41.2893L49.3855 46.9973C49.3523 47.0799 49.3356 47.1682 49.3361 47.2572C49.3361 49.2762 51.4617 50.0289 52.8008 50.0289C54.1399 50.0289 56.2655 49.2762 56.2655 47.2572C56.266 47.1682 56.2493 47.0799 56.2161 46.9973ZM40.328 51.4148C39.6757 51.4148 38.3566 51.1021 38.2552 50.1467L40.328 44.9653L42.4007 50.1467C42.2994 51.1021 40.9802 51.4148 40.328 51.4148ZM52.8008 48.643C52.1486 48.643 50.8294 48.3304 50.7281 47.375L52.8008 42.1936L54.8735 47.375C54.7722 48.3304 53.453 48.643 52.8008 48.643Z" fill="#0085FF"></path><path d="M33.2385 100.842V80.6839H34.5299V100.842H33.2385ZM36.963 87.1329C36.8896 86.4452 36.5798 85.9098 36.0339 85.5265C35.4932 85.1433 34.7898 84.9517 33.9236 84.9517C33.3146 84.9517 32.7923 85.0436 32.3566 85.2273C31.9209 85.4111 31.5876 85.6604 31.3566 85.9754C31.1256 86.2904 31.0075 86.6499 31.0022 87.0542C31.0022 87.3901 31.0784 87.6815 31.2306 87.9282C31.3881 88.1749 31.6007 88.3849 31.8684 88.5581C32.1361 88.7261 32.4327 88.8679 32.7582 88.9833C33.0837 89.0988 33.4118 89.196 33.7425 89.2747L35.2543 89.6527C35.8633 89.7944 36.4486 89.986 37.0103 90.2275C37.5772 90.469 38.0838 90.7734 38.53 91.1409C38.9815 91.5084 39.3384 91.9519 39.6009 92.4716C39.8634 92.9913 39.9946 93.6003 39.9946 94.2985C39.9946 95.2434 39.7532 96.0754 39.2702 96.7946C38.7873 97.5085 38.0891 98.0676 37.1757 98.4718C36.2675 98.8708 35.1677 99.0703 33.8763 99.0703C32.6217 99.0703 31.5324 98.876 30.6085 98.4876C29.6899 98.0991 28.9707 97.5322 28.451 96.7867C27.9365 96.0413 27.6583 95.1331 27.6163 94.0622H30.4904C30.5324 94.6239 30.7056 95.0911 31.0101 95.4639C31.3146 95.8366 31.7109 96.1148 32.1991 96.2985C32.6926 96.4823 33.2438 96.5741 33.8527 96.5741C34.4879 96.5741 35.0444 96.4796 35.5221 96.2907C36.005 96.0964 36.383 95.8287 36.656 95.4875C36.9289 95.141 37.068 94.7368 37.0733 94.2749C37.068 93.8549 36.9447 93.5084 36.7032 93.2354C36.4617 92.9572 36.1231 92.7262 35.6874 92.5425C35.257 92.3535 34.753 92.1855 34.1756 92.0386L32.3409 91.5661C31.0127 91.2249 29.9628 90.7078 29.1912 90.0149C28.4247 89.3167 28.0415 88.3902 28.0415 87.2353C28.0415 86.2851 28.2987 85.4531 28.8132 84.7391C29.3329 84.0252 30.039 83.4714 30.9314 83.0777C31.8238 82.6787 32.8343 82.4792 33.963 82.4792C35.1073 82.4792 36.11 82.6787 36.9709 83.0777C37.8371 83.4714 38.5169 84.0199 39.0104 84.7234C39.5038 85.4216 39.7584 86.2247 39.7742 87.1329H36.963ZM48.174 99.0467C47.0034 99.0467 45.964 98.8498 45.0558 98.4561C44.1529 98.0624 43.4442 97.5243 42.9298 96.8419C42.4206 96.1542 42.1686 95.3746 42.1738 94.5032C42.1686 93.826 42.3156 93.204 42.6148 92.637C42.914 92.0701 43.3182 91.5976 43.8274 91.2196C44.3419 90.8364 44.9141 90.5923 45.544 90.4873V90.3771C44.7146 90.1934 44.0427 89.7708 43.5282 89.1093C43.019 88.4426 42.767 87.6736 42.7723 86.8022C42.767 85.9728 42.998 85.2326 43.4652 84.5816C43.9324 83.9307 44.5729 83.4189 45.3865 83.0462C46.2002 82.6682 47.1294 82.4792 48.174 82.4792C49.2082 82.4792 50.1295 82.6682 50.9379 83.0462C51.7516 83.4189 52.392 83.9307 52.8592 84.5816C53.3317 85.2326 53.5679 85.9728 53.5679 86.8022C53.5679 87.6736 53.308 88.4426 52.7883 89.1093C52.2739 89.7708 51.6098 90.1934 50.7962 90.3771V90.4873C51.4261 90.5923 51.993 90.8364 52.497 91.2196C53.0062 91.5976 53.4104 92.0701 53.7096 92.637C54.0141 93.204 54.1663 93.826 54.1663 94.5032C54.1663 95.3746 53.9091 96.1542 53.3947 96.8419C52.8802 97.5243 52.1715 98.0624 51.2686 98.4561C50.3709 98.8498 49.3394 99.0467 48.174 99.0467ZM48.174 96.7946C48.7777 96.7946 49.3027 96.6922 49.7489 96.4875C50.1951 96.2775 50.5416 95.9836 50.7883 95.6056C51.035 95.2276 51.161 94.7919 51.1662 94.2985C51.161 93.784 51.0271 93.3299 50.7647 92.9362C50.5074 92.5373 50.1531 92.2249 49.7016 91.9992C49.2554 91.7735 48.7462 91.6606 48.174 91.6606C47.5966 91.6606 47.0821 91.7735 46.6307 91.9992C46.1792 92.2249 45.8222 92.5373 45.5598 92.9362C45.3025 93.3299 45.1766 93.784 45.1818 94.2985C45.1766 94.7919 45.2973 95.2276 45.544 95.6056C45.7907 95.9783 46.1372 96.2697 46.5834 96.4796C47.0349 96.6896 47.5651 96.7946 48.174 96.7946ZM48.174 89.4479C48.6675 89.4479 49.1032 89.3482 49.4812 89.1487C49.8644 88.9492 50.1662 88.671 50.3867 88.314C50.6072 87.9571 50.72 87.545 50.7253 87.0778C50.72 86.6158 50.6098 86.2116 50.3946 85.8651C50.1793 85.5134 49.8801 85.2431 49.4969 85.0541C49.1137 84.8599 48.6727 84.7627 48.174 84.7627C47.6648 84.7627 47.216 84.8599 46.8275 85.0541C46.4443 85.2431 46.1451 85.5134 45.9299 85.8651C45.7199 86.2116 45.6175 86.6158 45.6228 87.0778C45.6175 87.545 45.7225 87.9571 45.9377 88.314C46.1582 88.6658 46.4601 88.944 46.8433 89.1487C47.2317 89.3482 47.6753 89.4479 48.174 89.4479ZM62.3615 99.0467C61.3116 99.0467 60.3719 98.8498 59.5425 98.4561C58.7131 98.0571 58.0542 97.5112 57.566 96.8182C57.0831 96.1253 56.8259 95.3326 56.7944 94.4402H59.6291C59.6816 95.1016 59.9677 95.6423 60.4874 96.0623C61.0071 96.477 61.6318 96.6844 62.3615 96.6844C62.9337 96.6844 63.4429 96.5531 63.8891 96.2907C64.3353 96.0282 64.687 95.6633 64.9442 95.1961C65.2015 94.7289 65.3274 94.1961 65.3222 93.5977C65.3274 92.9887 65.1988 92.448 64.9364 91.9756C64.6739 91.5031 64.3143 91.133 63.8576 90.8653C63.4009 90.5923 62.8759 90.4558 62.2827 90.4558C61.7998 90.4506 61.3247 90.5398 60.8575 90.7236C60.3903 90.9073 60.0202 91.1488 59.7472 91.448L57.1093 91.0149L57.9519 82.6997H67.3065V85.1407H60.3693L59.9047 89.4164H59.9992C60.2984 89.0647 60.721 88.7734 61.2669 88.5424C61.8129 88.3062 62.4113 88.188 63.0623 88.188C64.0387 88.188 64.9101 88.419 65.6765 88.881C66.443 89.3377 67.0467 89.9676 67.4876 90.7708C67.9286 91.574 68.149 92.4926 68.149 93.5268C68.149 94.5924 67.9023 95.5426 67.4089 96.3773C66.9207 97.2067 66.2409 97.8603 65.3694 98.338C64.5033 98.8104 63.5006 99.0467 62.3615 99.0467ZM76.7477 99.1333C75.4511 99.1333 74.3382 98.8052 73.4091 98.149C72.4851 97.4875 71.7738 96.5348 71.2751 95.2906C70.7817 94.0412 70.535 92.5373 70.535 90.7787C70.5402 89.0201 70.7896 87.524 71.283 86.2904C71.7817 85.0515 72.493 84.1066 73.4169 83.4556C74.3461 82.8047 75.4564 82.4792 76.7477 82.4792C78.0391 82.4792 79.1494 82.8047 80.0786 83.4556C81.0077 84.1066 81.719 85.0515 82.2125 86.2904C82.7112 87.5292 82.9605 89.0253 82.9605 90.7787C82.9605 92.5425 82.7112 94.0491 82.2125 95.2985C81.719 96.5426 81.0077 97.4928 80.0786 98.149C79.1546 98.8052 78.0444 99.1333 76.7477 99.1333ZM76.7477 96.6686C77.7556 96.6686 78.5509 96.1725 79.1336 95.1804C79.7216 94.183 80.0156 92.7157 80.0156 90.7787C80.0156 89.4978 79.8817 88.4217 79.614 87.5502C79.3462 86.6788 78.9683 86.0226 78.4801 85.5817C77.9919 85.1355 77.4144 84.9124 76.7477 84.9124C75.7451 84.9124 74.9524 85.4111 74.3697 86.4085C73.787 87.4006 73.493 88.8574 73.4878 90.7787C73.4825 92.0648 73.6112 93.1462 73.8736 94.0229C74.1414 94.8995 74.5193 95.561 75.0075 96.0072C75.4957 96.4481 76.0758 96.6686 76.7477 96.6686ZM91.5376 99.1333C90.2409 99.1333 89.128 98.8052 88.1989 98.149C87.275 97.4875 86.5637 96.5348 86.065 95.2906C85.5715 94.0412 85.3248 92.5373 85.3248 90.7787C85.33 89.0201 85.5794 87.524 86.0728 86.2904C86.5715 85.0515 87.2828 84.1066 88.2068 83.4556C89.1359 82.8047 90.2462 82.4792 91.5376 82.4792C92.8289 82.4792 93.9392 82.8047 94.8684 83.4556C95.7975 84.1066 96.5088 85.0515 97.0023 86.2904C97.501 87.5292 97.7504 89.0253 97.7504 90.7787C97.7504 92.5425 97.501 94.0491 97.0023 95.2985C96.5088 96.5426 95.7975 97.4928 94.8684 98.149C93.9445 98.8052 92.8342 99.1333 91.5376 99.1333ZM91.5376 96.6686C92.5455 96.6686 93.3408 96.1725 93.9235 95.1804C94.5114 94.183 94.8054 92.7157 94.8054 90.7787C94.8054 89.4978 94.6715 88.4217 94.4038 87.5502C94.1361 86.6788 93.7581 86.0226 93.2699 85.5817C92.7817 85.1355 92.2043 84.9124 91.5376 84.9124C90.5349 84.9124 89.7422 85.4111 89.1595 86.4085C88.5768 87.4006 88.2829 88.8574 88.2776 90.7787C88.2724 92.0648 88.401 93.1462 88.6635 94.0229C88.9312 94.8995 89.3092 95.561 89.7974 96.0072C90.2856 96.4481 90.8656 96.6686 91.5376 96.6686ZM101.526 98.9994C101.048 98.9994 100.639 98.8314 100.298 98.4955C99.9565 98.1595 99.7885 97.75 99.7937 97.2671C99.7885 96.7946 99.9565 96.3904 100.298 96.0544C100.639 95.7185 101.048 95.5505 101.526 95.5505C101.988 95.5505 102.39 95.7185 102.731 96.0544C103.077 96.3904 103.253 96.7946 103.258 97.2671C103.253 97.5873 103.169 97.8786 103.006 98.1411C102.849 98.4036 102.639 98.6136 102.376 98.7711C102.119 98.9233 101.836 98.9994 101.526 98.9994ZM111.503 99.1333C110.206 99.1333 109.093 98.8052 108.164 98.149C107.24 97.4875 106.529 96.5348 106.03 95.2906C105.537 94.0412 105.29 92.5373 105.29 90.7787C105.295 89.0201 105.545 87.524 106.038 86.2904C106.537 85.0515 107.248 84.1066 108.172 83.4556C109.101 82.8047 110.211 82.4792 111.503 82.4792C112.794 82.4792 113.904 82.8047 114.834 83.4556C115.763 84.1066 116.474 85.0515 116.967 86.2904C117.466 87.5292 117.716 89.0253 117.716 90.7787C117.716 92.5425 117.466 94.0491 116.967 95.2985C116.474 96.5426 115.763 97.4928 114.834 98.149C113.91 98.8052 112.799 99.1333 111.503 99.1333ZM111.503 96.6686C112.511 96.6686 113.306 96.1725 113.889 95.1804C114.477 94.183 114.771 92.7157 114.771 90.7787C114.771 89.4978 114.637 88.4217 114.369 87.5502C114.101 86.6788 113.723 86.0226 113.235 85.5817C112.747 85.1355 112.169 84.9124 111.503 84.9124C110.5 84.9124 109.707 85.4111 109.125 86.4085C108.542 87.4006 108.248 88.8574 108.243 90.7787C108.238 92.0648 108.366 93.1462 108.629 94.0229C108.896 94.8995 109.274 95.561 109.763 96.0072C110.251 96.4481 110.831 96.6686 111.503 96.6686ZM126.293 99.1333C124.996 99.1333 123.883 98.8052 122.954 98.149C122.03 97.4875 121.319 96.5348 120.82 95.2906C120.327 94.0412 120.08 92.5373 120.08 90.7787C120.085 89.0201 120.334 87.524 120.828 86.2904C121.327 85.0515 122.038 84.1066 122.962 83.4556C123.891 82.8047 125.001 82.4792 126.293 82.4792C127.584 82.4792 128.694 82.8047 129.623 83.4556C130.553 84.1066 131.264 85.0515 131.757 86.2904C132.256 87.5292 132.505 89.0253 132.505 90.7787C132.505 92.5425 132.256 94.0491 131.757 95.2985C131.264 96.5426 130.553 97.4928 129.623 98.149C128.699 98.8052 127.589 99.1333 126.293 99.1333ZM126.293 96.6686C127.3 96.6686 128.096 96.1725 128.678 95.1804C129.266 94.183 129.56 92.7157 129.56 90.7787C129.56 89.4978 129.427 88.4217 129.159 87.5502C128.891 86.6788 128.513 86.0226 128.025 85.5817C127.537 85.1355 126.959 84.9124 126.293 84.9124C125.29 84.9124 124.497 85.4111 123.915 86.4085C123.332 87.4006 123.038 88.8574 123.033 90.7787C123.027 92.0648 123.156 93.1462 123.418 94.0229C123.686 94.8995 124.064 95.561 124.552 96.0072C125.041 96.4481 125.621 96.6686 126.293 96.6686Z" fill="#FCFCFD" fill-opacity="0.95"></path><path d="M27.9754 121.37V110.082H31.7897C32.6753 110.082 33.3992 110.241 33.9614 110.561C34.5273 110.877 34.9462 111.305 35.2181 111.845C35.49 112.386 35.626 112.988 35.626 113.653C35.626 114.318 35.49 114.923 35.2181 115.467C34.9499 116.011 34.5346 116.444 33.9724 116.768C33.4102 117.087 32.69 117.247 31.8117 117.247H29.0778V116.035H31.7676C32.3739 116.035 32.8608 115.93 33.2283 115.72C33.5958 115.511 33.8622 115.228 34.0275 114.871C34.1966 114.511 34.2811 114.105 34.2811 113.653C34.2811 113.201 34.1966 112.797 34.0275 112.441C33.8622 112.084 33.5939 111.805 33.2228 111.603C32.8516 111.397 32.3592 111.294 31.7456 111.294H29.3423V121.37H27.9754ZM37.6517 121.37V112.904H38.9084V114.182H38.9966C39.1509 113.764 39.4302 113.424 39.8344 113.163C40.2386 112.902 40.6943 112.771 41.2014 112.771C41.2969 112.771 41.4163 112.773 41.5596 112.777C41.703 112.781 41.8114 112.786 41.8849 112.793V114.116C41.8408 114.105 41.7397 114.089 41.5817 114.067C41.4274 114.041 41.2638 114.028 41.0911 114.028C40.6796 114.028 40.3121 114.115 39.9887 114.287C39.669 114.456 39.4155 114.691 39.2281 114.993C39.0443 115.29 38.9525 115.63 38.9525 116.012V121.37H37.6517ZM46.6086 121.547C45.8443 121.547 45.1737 121.365 44.5967 121.001C44.0235 120.637 43.5752 120.128 43.2518 119.474C42.9321 118.82 42.7723 118.056 42.7723 117.181C42.7723 116.299 42.9321 115.529 43.2518 114.871C43.5752 114.214 44.0235 113.703 44.5967 113.339C45.1737 112.975 45.8443 112.793 46.6086 112.793C47.3729 112.793 48.0417 112.975 48.615 113.339C49.1919 113.703 49.6402 114.214 49.9599 114.871C50.2833 115.529 50.445 116.299 50.445 117.181C50.445 118.056 50.2833 118.82 49.9599 119.474C49.6402 120.128 49.1919 120.637 48.615 121.001C48.0417 121.365 47.3729 121.547 46.6086 121.547ZM46.6086 120.378C47.1892 120.378 47.6669 120.229 48.0417 119.931C48.4166 119.634 48.694 119.242 48.874 118.757C49.0541 118.272 49.1441 117.747 49.1441 117.181C49.1441 116.615 49.0541 116.088 48.874 115.599C48.694 115.11 48.4166 114.715 48.0417 114.414C47.6669 114.113 47.1892 113.962 46.6086 113.962C46.028 113.962 45.5503 114.113 45.1755 114.414C44.8007 114.715 44.5233 115.11 44.3432 115.599C44.1631 116.088 44.0731 116.615 44.0731 117.181C44.0731 117.747 44.1631 118.272 44.3432 118.757C44.5233 119.242 44.8007 119.634 45.1755 119.931C45.5503 120.229 46.028 120.378 46.6086 120.378ZM56.2008 112.904V114.006H51.6369V112.904H56.2008ZM53.0039 121.37V111.735C53.0039 111.25 53.1178 110.846 53.3456 110.523C53.5735 110.199 53.8693 109.957 54.2331 109.795C54.5969 109.633 54.9809 109.552 55.3851 109.552C55.7048 109.552 55.9657 109.578 56.1678 109.63C56.3699 109.681 56.5205 109.729 56.6198 109.773L56.2449 110.897C56.1788 110.875 56.0869 110.848 55.9693 110.815C55.8554 110.782 55.7048 110.765 55.5174 110.765C55.0874 110.765 54.7769 110.873 54.5858 111.09C54.3984 111.307 54.3047 111.625 54.3047 112.044V121.37H53.0039ZM58.0239 121.37V112.904H59.3248V121.37H58.0239ZM58.6854 111.493C58.4318 111.493 58.2132 111.406 58.0294 111.234C57.8494 111.061 57.7594 110.853 57.7594 110.611C57.7594 110.368 57.8494 110.161 58.0294 109.988C58.2132 109.815 58.4318 109.729 58.6854 109.729C58.9389 109.729 59.1557 109.815 59.3358 109.988C59.5195 110.161 59.6114 110.368 59.6114 110.611C59.6114 110.853 59.5195 111.061 59.3358 111.234C59.1557 111.406 58.9389 111.493 58.6854 111.493ZM65.3893 112.904V114.006H61.0018V112.904H65.3893ZM62.2806 110.875H63.5814V118.945C63.5814 119.312 63.6347 119.588 63.7412 119.772C63.8515 119.952 63.9911 120.073 64.1601 120.135C64.3329 120.194 64.5148 120.224 64.7058 120.224C64.8491 120.224 64.9667 120.216 65.0586 120.202C65.1505 120.183 65.224 120.169 65.2791 120.157L65.5437 121.326C65.4555 121.359 65.3324 121.392 65.1744 121.425C65.0163 121.462 64.8161 121.48 64.5735 121.48C64.2061 121.48 63.846 121.401 63.4932 121.243C63.1441 121.085 62.8538 120.845 62.6223 120.521C62.3945 120.198 62.2806 119.79 62.2806 119.298V110.875ZM75.7022 109.552L72.0643 123.068H70.8737L74.5116 109.552H75.7022ZM81.7861 121.37V110.082H83.1531V120.157H88.4005V121.37H81.7861ZM93.7802 121.547C93.0158 121.547 92.3452 121.365 91.7683 121.001C91.195 120.637 90.7467 120.128 90.4234 119.474C90.1037 118.82 89.9438 118.056 89.9438 117.181C89.9438 116.299 90.1037 115.529 90.4234 114.871C90.7467 114.214 91.195 113.703 91.7683 113.339C92.3452 112.975 93.0158 112.793 93.7802 112.793C94.5445 112.793 95.2133 112.975 95.7865 113.339C96.3634 113.703 96.8117 114.214 97.1314 114.871C97.4548 115.529 97.6165 116.299 97.6165 117.181C97.6165 118.056 97.4548 118.82 97.1314 119.474C96.8117 120.128 96.3634 120.637 95.7865 121.001C95.2133 121.365 94.5445 121.547 93.7802 121.547ZM93.7802 120.378C94.3608 120.378 94.8385 120.229 95.2133 119.931C95.5881 119.634 95.8655 119.242 96.0456 118.757C96.2256 118.272 96.3157 117.747 96.3157 117.181C96.3157 116.615 96.2256 116.088 96.0456 115.599C95.8655 115.11 95.5881 114.715 95.2133 114.414C94.8385 114.113 94.3608 113.962 93.7802 113.962C93.1996 113.962 92.7219 114.113 92.347 114.414C91.9722 114.715 91.6948 115.11 91.5147 115.599C91.3347 116.088 91.2446 116.615 91.2446 117.181C91.2446 117.747 91.3347 118.272 91.5147 118.757C91.6948 119.242 91.9722 119.634 92.347 119.931C92.7219 120.229 93.1996 120.378 93.7802 120.378ZM105.599 114.8L104.431 115.131C104.357 114.936 104.249 114.747 104.105 114.563C103.966 114.375 103.775 114.221 103.532 114.1C103.29 113.979 102.979 113.918 102.601 113.918C102.083 113.918 101.651 114.037 101.305 114.276C100.964 114.511 100.793 114.811 100.793 115.175C100.793 115.498 100.91 115.753 101.146 115.941C101.381 116.128 101.748 116.284 102.248 116.409L103.505 116.718C104.262 116.902 104.826 117.183 105.197 117.561C105.568 117.936 105.754 118.419 105.754 119.011C105.754 119.496 105.614 119.93 105.335 120.312C105.059 120.694 104.673 120.995 104.177 121.216C103.681 121.436 103.104 121.547 102.446 121.547C101.583 121.547 100.868 121.359 100.302 120.984C99.7363 120.609 99.378 120.062 99.2274 119.342L100.462 119.033C100.58 119.489 100.802 119.83 101.129 120.058C101.46 120.286 101.891 120.4 102.424 120.4C103.031 120.4 103.512 120.271 103.868 120.014C104.229 119.753 104.409 119.441 104.409 119.077C104.409 118.783 104.306 118.537 104.1 118.339C103.894 118.136 103.578 117.986 103.152 117.887L101.741 117.556C100.965 117.372 100.396 117.087 100.032 116.701C99.672 116.312 99.4919 115.825 99.4919 115.241C99.4919 114.763 99.6261 114.341 99.8943 113.973C100.166 113.606 100.536 113.317 101.002 113.108C101.473 112.898 102.005 112.793 102.601 112.793C103.439 112.793 104.096 112.977 104.574 113.345C105.055 113.712 105.397 114.197 105.599 114.8ZM113.709 114.8L112.54 115.131C112.467 114.936 112.358 114.747 112.215 114.563C112.075 114.375 111.884 114.221 111.642 114.1C111.399 113.979 111.089 113.918 110.71 113.918C110.192 113.918 109.76 114.037 109.415 114.276C109.073 114.511 108.902 114.811 108.902 115.175C108.902 115.498 109.02 115.753 109.255 115.941C109.49 116.128 109.858 116.284 110.357 116.409L111.614 116.718C112.371 116.902 112.935 117.183 113.306 117.561C113.677 117.936 113.863 118.419 113.863 119.011C113.863 119.496 113.723 119.93 113.444 120.312C113.169 120.694 112.783 120.995 112.287 121.216C111.791 121.436 111.214 121.547 110.556 121.547C109.692 121.547 108.978 121.359 108.412 120.984C107.846 120.609 107.488 120.062 107.337 119.342L108.572 119.033C108.689 119.489 108.911 119.83 109.239 120.058C109.569 120.286 110.001 120.4 110.534 120.4C111.14 120.4 111.622 120.271 111.978 120.014C112.338 119.753 112.518 119.441 112.518 119.077C112.518 118.783 112.415 118.537 112.209 118.339C112.004 118.136 111.688 117.986 111.261 117.887L109.85 117.556C109.075 117.372 108.505 117.087 108.142 116.701C107.782 116.312 107.601 115.825 107.601 115.241C107.601 114.763 107.736 114.341 108.004 113.973C108.276 113.606 108.645 113.317 109.112 113.108C109.582 112.898 110.115 112.793 110.71 112.793C111.548 112.793 112.206 112.977 112.683 113.345C113.165 113.712 113.507 114.197 113.709 114.8Z" fill="#FCFCFD" fill-opacity="0.8"></path><rect x="172.674" y="105.152" width="60.7174" height="20.4348" rx="10.2174" fill="#25C685" fill-opacity="0.25"></rect><path d="M187.944 114.98C187.886 115.038 187.817 115.084 187.741 115.115C187.665 115.147 187.584 115.163 187.502 115.163C187.42 115.163 187.339 115.147 187.263 115.115C187.187 115.084 187.118 115.038 187.06 114.98L184.384 112.304V119.943C184.384 120.109 184.319 120.267 184.202 120.384C184.085 120.501 183.926 120.567 183.761 120.567C183.595 120.567 183.437 120.501 183.32 120.384C183.203 120.267 183.137 120.109 183.137 119.943V112.304L180.46 114.98C180.343 115.097 180.184 115.163 180.018 115.163C179.853 115.163 179.694 115.097 179.577 114.98C179.459 114.863 179.394 114.704 179.394 114.538C179.394 114.372 179.459 114.213 179.577 114.096L183.318 110.354C183.376 110.296 183.445 110.25 183.521 110.219C183.597 110.187 183.678 110.171 183.76 110.171C183.842 110.171 183.923 110.187 183.999 110.219C184.075 110.25 184.144 110.296 184.202 110.354L187.944 114.096C188.002 114.154 188.048 114.223 188.079 114.299C188.111 114.375 188.127 114.456 188.127 114.538C188.127 114.62 188.111 114.701 188.079 114.777C188.048 114.853 188.002 114.922 187.944 114.98Z" fill="#25C685"></path><path d="M198.222 111.307V119.37H196.761V112.728H196.714L194.828 113.933V112.594L196.832 111.307H198.222ZM203.073 119.48C202.548 119.48 202.078 119.382 201.663 119.185C201.248 118.986 200.919 118.713 200.675 118.366C200.434 118.02 200.305 117.623 200.289 117.177H201.707C201.733 117.508 201.876 117.778 202.136 117.988C202.396 118.196 202.708 118.299 203.073 118.299C203.359 118.299 203.613 118.234 203.837 118.102C204.06 117.971 204.235 117.789 204.364 117.555C204.493 117.321 204.556 117.055 204.553 116.756C204.556 116.451 204.491 116.181 204.36 115.945C204.229 115.709 204.049 115.524 203.821 115.39C203.592 115.253 203.33 115.185 203.033 115.185C202.792 115.182 202.554 115.227 202.321 115.319C202.087 115.411 201.902 115.531 201.766 115.681L200.447 115.464L200.868 111.307H205.545V112.527H202.077L201.844 114.665H201.892C202.041 114.489 202.252 114.344 202.525 114.228C202.798 114.11 203.098 114.051 203.423 114.051C203.911 114.051 204.347 114.167 204.73 114.398C205.113 114.626 205.415 114.941 205.636 115.342C205.856 115.744 205.966 116.203 205.966 116.72C205.966 117.253 205.843 117.728 205.596 118.146C205.352 118.56 205.012 118.887 204.577 119.126C204.144 119.362 203.642 119.48 203.073 119.48ZM207.908 119.457C207.67 119.457 207.465 119.373 207.294 119.205C207.124 119.037 207.04 118.832 207.042 118.591C207.04 118.354 207.124 118.152 207.294 117.984C207.465 117.816 207.67 117.732 207.908 117.732C208.139 117.732 208.34 117.816 208.511 117.984C208.684 118.152 208.772 118.354 208.775 118.591C208.772 118.751 208.73 118.896 208.649 119.028C208.57 119.159 208.465 119.264 208.334 119.343C208.205 119.419 208.063 119.457 207.908 119.457ZM210.085 117.874V116.713L213.506 111.307H214.475V112.96H213.884L211.581 116.61V116.673H216.357V117.874H210.085ZM213.931 119.37V117.52L213.947 117V111.307H215.325V119.37H213.931ZM221.926 117.858V117.433C221.926 117.121 221.991 116.833 222.122 116.571C222.256 116.308 222.451 116.097 222.705 115.937C222.96 115.777 223.268 115.697 223.63 115.697C224.003 115.697 224.315 115.777 224.567 115.937C224.819 116.094 225.01 116.304 225.138 116.567C225.27 116.829 225.335 117.118 225.335 117.433V117.858C225.335 118.171 225.27 118.458 225.138 118.72C225.007 118.983 224.814 119.194 224.56 119.354C224.308 119.514 223.998 119.595 223.63 119.595C223.263 119.595 222.952 119.514 222.697 119.354C222.443 119.194 222.25 118.983 222.119 118.72C221.99 118.458 221.926 118.171 221.926 117.858ZM222.953 117.433V117.858C222.953 118.066 223.003 118.256 223.103 118.429C223.203 118.602 223.378 118.689 223.63 118.689C223.885 118.689 224.06 118.604 224.154 118.433C224.251 118.26 224.3 118.068 224.3 117.858V117.433C224.3 117.223 224.254 117.031 224.162 116.858C224.07 116.682 223.893 116.594 223.63 116.594C223.384 116.594 223.209 116.682 223.107 116.858C223.004 117.031 222.953 117.223 222.953 117.433ZM217.827 113.244V112.819C217.827 112.504 217.894 112.215 218.028 111.953C218.162 111.69 218.356 111.48 218.611 111.323C218.865 111.163 219.174 111.082 219.536 111.082C219.906 111.082 220.217 111.163 220.469 111.323C220.724 111.48 220.915 111.69 221.044 111.953C221.172 112.215 221.237 112.504 221.237 112.819V113.244C221.237 113.559 221.171 113.848 221.04 114.11C220.911 114.37 220.72 114.579 220.465 114.736C220.21 114.894 219.901 114.972 219.536 114.972C219.166 114.972 218.853 114.894 218.599 114.736C218.347 114.579 218.155 114.369 218.024 114.106C217.893 113.844 217.827 113.556 217.827 113.244ZM218.863 112.819V113.244C218.863 113.454 218.911 113.646 219.008 113.819C219.108 113.989 219.284 114.075 219.536 114.075C219.788 114.075 219.961 113.989 220.056 113.819C220.153 113.646 220.201 113.454 220.201 113.244V112.819C220.201 112.609 220.155 112.417 220.063 112.244C219.972 112.068 219.796 111.98 219.536 111.98C219.286 111.98 219.112 112.068 219.012 112.244C218.912 112.42 218.863 112.611 218.863 112.819ZM218.276 119.37L223.819 111.307H224.804L219.26 119.37H218.276Z" fill="#25C685"></path><path fill-rule="evenodd" clip-rule="evenodd" d="M233.391 142.218C233.391 144.055 231.697 145.544 229.608 145.544L30.3906 145.544C28.3016 145.544 26.608 144.055 26.608 142.218C26.608 140.381 28.3015 138.892 30.3906 138.892L229.608 138.892C231.697 138.892 233.391 140.381 233.391 142.218Z" fill="url(#paint0_linear_271_17891)"></path></g><defs><filter id="filter0_i_271_17891" x="0" y="0" width="260" height="181.435" filterUnits="userSpaceOnUse" color-interpolation-filters="sRGB"><feFlood flood-opacity="0" result="BackgroundImageFix"></feFlood><feBlend mode="normal" in="SourceGraphic" in2="BackgroundImageFix" result="shape"></feBlend><feColorMatrix in="SourceAlpha" type="matrix" values="0 0 0 0 0 0 0 0 0 0 0 0 0 0 0 0 0 0 127 0" result="hardAlpha"></feColorMatrix><feOffset dy="4.43478"></feOffset><feGaussianBlur stdDeviation="16.6304"></feGaussianBlur><feComposite in2="hardAlpha" operator="arithmetic" k2="-1" k3="1"></feComposite><feColorMatrix type="matrix" values="0 0 0 0 1 0 0 0 0 1 0 0 0 0 1 0 0 0 0.05 0"></feColorMatrix><feBlend mode="normal" in2="shape" result="effect1_innerShadow_271_17891"></feBlend></filter><linearGradient id="paint0_linear_271_17891" x1="26.608" y1="141.109" x2="233.391" y2="141.109" gradientUnits="userSpaceOnUse"><stop stop-color="#25C685"></stop><stop offset="0.615" stop-color="#25C685"></stop><stop offset="0.6151" stop-color="white" stop-opacity="0.4"></stop><stop offset="1" stop-color="white" stop-opacity="0.4"></stop></linearGradient></defs></svg> 