<?xml version="1.0" encoding="UTF-8"?> <svg xmlns="http://www.w3.org/2000/svg" id="Layer_2" data-name="Layer 2" viewBox="0 0 561.16 186.93"><defs><style> .cls-1, .cls-2 { fill: #fff; } .cls-2 { fill-rule: evenodd; } </style></defs><g id="Layer_1-2" data-name="Layer 1"><g><g><g><path class="cls-1" d="m302.68,34.13v-.12c0-11.82,9.04-21.82,21.76-21.82,7.36,0,11.88,2.05,16.22,5.73l-4.7,5.61c-3.26-2.77-6.45-4.52-11.82-4.52-7.78,0-13.69,6.81-13.69,14.89v.12c0,8.68,5.73,15.07,14.35,15.07,3.98,0,7.6-1.27,10.19-3.2v-7.9h-10.79v-6.45h17.97v17.72c-4.16,3.56-10.13,6.57-17.6,6.57-13.2,0-21.88-9.4-21.88-21.7Z"></path><path class="cls-1" d="m349.94,34.13v-.12c0-11.88,9.16-21.82,22.13-21.82s22,9.83,22,21.7v.12c0,11.88-9.16,21.82-22.13,21.82s-22-9.83-22-21.7Zm36.35,0v-.12c0-8.2-5.97-15.01-14.35-15.01s-14.23,6.69-14.23,14.89v.12c0,8.2,5.97,15.01,14.35,15.01s14.23-6.69,14.23-14.89Z"></path><path class="cls-1" d="m415.4,12.6h6.87l18.57,42.5h-7.84l-4.28-10.19h-19.96l-4.34,10.19h-7.6l18.57-42.5Zm10.61,25.74l-7.29-16.88-7.24,16.88h14.53Z"></path><path class="cls-1" d="m453.02,19.78h-13.38v-6.87h34.24v6.87h-13.38v35.33h-7.48V19.78Z"></path></g><g><path class="cls-1" d="m302.68,75.04h31.41v6.75h-24v11.52h21.28v6.75h-21.28v17.18h-7.42v-42.2Z"></path><path class="cls-1" d="m341.56,99.34v-24.3h7.42v23.99c0,7.84,4.04,12.06,10.67,12.06s10.61-3.98,10.61-11.76v-24.3h7.42v23.93c0,12.6-7.11,18.93-18.15,18.93s-17.97-6.33-17.97-18.57Z"></path><path class="cls-1" d="m387.85,75.04h6.87l22.61,29.18v-29.18h7.29v42.2h-6.21l-23.27-30.02v30.02h-7.29v-42.2Z"></path><path class="cls-1" d="m435.47,75.04h15.74c13.26,0,22.43,9.1,22.43,20.98v.12c0,11.88-9.16,21.1-22.43,21.1h-15.74v-42.2Zm15.74,35.45c8.86,0,14.65-5.97,14.65-14.23v-.12c0-8.26-5.79-14.35-14.65-14.35h-8.32v28.7h8.32Z"></path><path class="cls-1" d="m482.61,75.04h31.29v6.63h-23.87v10.97h21.16v6.63h-21.16v11.33h24.18v6.63h-31.59v-42.2Z"></path><path class="cls-1" d="m523,75.04h15.74c13.26,0,22.43,9.1,22.43,20.98v.12c0,11.88-9.16,21.1-22.43,21.1h-15.74v-42.2Zm15.74,35.45c8.86,0,14.65-5.97,14.65-14.23v-.12c0-8.26-5.79-14.35-14.65-14.35h-8.32v28.7h8.32Z"></path></g><g><path class="cls-1" d="m316.06,141.42h-13.38v-6.87h34.24v6.87h-13.38v35.33h-7.48v-35.33Z"></path><path class="cls-1" d="m344.75,134.55h18.81c5.31,0,9.47,1.57,12.18,4.22,2.23,2.29,3.5,5.43,3.5,9.1v.12c0,6.93-4.16,11.09-10.07,12.78l11.39,15.98h-8.74l-10.37-14.71h-9.29v14.71h-7.42v-42.2Zm18.27,20.92c5.3,0,8.68-2.77,8.68-7.05v-.12c0-4.52-3.25-6.99-8.74-6.99h-10.79v14.17h10.85Z"></path><path class="cls-1" d="m403.29,134.25h6.87l18.57,42.5h-7.84l-4.28-10.19h-19.96l-4.34,10.19h-7.6l18.57-42.5Zm10.61,25.74l-7.29-16.88-7.24,16.88h14.53Z"></path><path class="cls-1" d="m435.96,134.55h15.74c13.26,0,22.43,9.1,22.43,20.98v.12c0,11.88-9.16,21.1-22.43,21.1h-15.74v-42.2Zm15.74,35.45c8.86,0,14.65-5.97,14.65-14.23v-.12c0-8.26-5.79-14.35-14.65-14.35h-8.32v28.7h8.32Z"></path><path class="cls-1" d="m483.1,134.55h31.29v6.63h-23.87v10.97h21.16v6.63h-21.16v11.33h24.18v6.63h-31.59v-42.2Z"></path><path class="cls-1" d="m523.48,134.55h18.81c5.31,0,9.47,1.57,12.18,4.22,2.23,2.29,3.5,5.43,3.5,9.1v.12c0,6.93-4.16,11.09-10.07,12.78l11.39,15.98h-8.74l-10.37-14.71h-9.29v14.71h-7.42v-42.2Zm18.27,20.92c5.3,0,8.68-2.77,8.68-7.05v-.12c0-4.52-3.25-6.99-8.74-6.99h-10.79v14.17h10.85Z"></path></g></g><rect class="cls-1" x="260.26" y="0" width="6.56" height="186.93"></rect><g><path class="cls-2" d="m110.33,158.24l-33.13-33.17,7.15,23.48-1.21-.31-4.71-1.19-14.42-3.64-22.56-29.47c-2.61-3.41-5.44-6.79-7.4-10.64-1.73-3.39-2.77-6.97-3.92-10.58-1.41-4.43-2.39-7.92-2.54-12.65-.07-2.43.05-4.99.28-7.55l-8.02,5.48-3.7-8.97c-.43-.42-1.11-.95-1.51-1.18-3.15-1.55-5.64-4.06-6.63-7.52-1.9-6.65,2.6-12.12,7.37-16.08,3.19-4.12,5.94-6.48,9.89-9.97.49-.43.94-.86,1.37-1.34,7.7-13.05,20.19-22.15,35.23-24.73,1.06-.18,2.14-.33,3.21-.44l7.15-.23c4.73.19,9.42,1.06,13.87,2.63,46.77,0,92.76.31,139.45.31l-.24,63.52-20.66-21.03v52.53s-65.04,65.04-65.04,65.04h0s-6.38,6.38-6.38,6.38h0l-1.35-1.04-21.52-17.64h0Zm2.97-133.77v126.26l17.7,13.64v-82.11l16.68.04,4.77,4.99-.05-28.02-4.72,5.09-16.68-.04v-27.53l14.35-.19,9.91,13.48v-31.33h-48.03l6.07,5.72h0Zm64.94,67.94l-41.1,39.64v28.79l58.9-58.9v-28.53h0v-36.61h9.01l11.65,12.59.24-30.31h-59.24l.13,31.47,11.78-13.75h8.62v41.26h.01v14.36h0ZM58.53,41.04c-.22.45-1.62.83-4.21,1.16,3.19-1.77,6.01-4.63,8.47-8.6-2.19.05-5.59.84-10.19,2.35,12.3-11.54,46.37-8.85,50.14,23.99C115.11,14.4,55.41-.18,33.67,37.91c-3.33,4.13-6.56,4.91-12.1,12.37-6.02,4.74-7.03,8.05-3.04,9.93,1.85.97,4.63,3.35,5.2,4.74,2.46-1.68,3.81-3.52,4.04-5.53,7.25-.73,6.77.05,10.01-2.25.32.29.67.61,1.05.97-.46,1.77-.9,4.04-1.35,6.95-.69,4.43-1.44,10.36-1.31,14.73.13,4.38,1.15,7.21,2.14,10.3.99,3.1,1.95,6.46,3.39,9.29,1.44,2.83,3.36,5.12,6.57,9.31l20.74,27.09,3.47.88-3.08-12.15h0s-8.8-19.62-8.8-19.62l.5.75c-.1-.31.45,0,2.22.99,2.56,1.44,7.69,4.32,11.26,5.5,1.59.52,2.87.71,4.02.8l30.35,34.44v-24.18l-.04-.12c4.05-13.48,1.86-19.43-3.1-22.49.73-2.96-.39-6.93.15-8.83,1.66-5.91,1.73-20.89-19.3-18.94-.28.03,9.37,4.77,10.09,7.69,1.02,4.19,1.47,10.83-4.18,9.97-6.67-1.01-10.36-1.39-14.63-3.57-13.74-7.04-21.67-30.63-19.4-45.87Z"></path><path class="cls-2" d="m61.27,4.87l3.55-.49,7.52-.24c4.86.19,9.7,1.06,14.3,2.62l142.29.31-.29,75.19-20.62-20.99v45.63s-74.53,74.53-74.53,74.53l-3.76-2.9-21.69-17.78-23.63-23.66,4.94,16.22-27.33-6.91-23.28-30.41c-7.54-9.85-8.1-10.47-11.86-22.25-1.65-5.16-2.66-9.12-2.72-14.59l-5.87,4.01-5-12.11-.32-.23c-3.96-1.99-7.01-5.24-8.25-9.56-2.25-7.88,2.44-14.54,8.18-19.39,3.1-3.95,6.35-6.82,10.1-10.14.3-.27.6-.54.88-.83,8.23-13.76,21.51-23.31,37.39-26.04h0Zm26.04-2.23C82.53,1.08,77.52.2,72.49.01h-.27s-7.69.24-7.69.24l-.27.03c-1.24.13-2.47.3-3.7.51-16.89,2.91-31.1,12.99-39.97,27.55l-.33.3c-3.74,3.31-7.23,6.45-10.36,10.36C3.02,44.93-1.94,53.05.74,62.41c1.44,5.02,4.8,8.96,9.25,11.51l6.42,15.54,4.31-2.94c.52,2.84,1.3,5.59,2.22,8.49,1.28,4.01,2.47,7.94,4.38,11.71,2.21,4.33,5.19,7.96,8.13,11.8l24.15,31.55,21.68,5.48,14.15,3.58-2.25-7.39,12.08,12.09,21.9,17.95,6.69,5.15,78.31-78.31v-37.24s20.59,20.96,20.59,20.96l.34-89.39h-7.56c-46.07,0-92.14-.31-138.21-.31Z"></path></g></g></g></svg> 