<?xml version="1.0" encoding="UTF-8"?> <svg xmlns="http://www.w3.org/2000/svg" width="120" height="40" viewBox="0 0 120 40" fill="none"><g clip-path="url(#clip0_216_13828)"><path d="M19.92 0C8.96 0 0 8.96 0 20C0 31.04 8.88 40 19.92 40C30.96 40 39.84 31.04 39.84 20C39.84 8.96 30.96 0 19.92 0ZM25.6 30L25.52 17.52L13.12 30H7.04L22.64 14.4H16.96C15.2 14.4 13.76 15.84 13.76 17.6C13.76 18.32 14 19.04 14.4 19.52L11.36 22.56C10.16 21.2 9.44 19.44 9.44 17.52C9.44 13.36 12.8 10 16.96 10H29.92V29.92L25.6 30Z" fill="#5E59EC"></path><path d="M55.5205 32.8801H49.5205V12.5601H55.5205V17.4401C56.5605 13.6801 59.1205 12.0801 61.2005 12.0801C62.6405 12.0801 63.6805 12.3201 64.6405 12.8001L63.5205 18.2401C62.4005 17.6801 61.3605 17.6001 60.4805 17.6001C57.0405 17.6001 55.4405 20.3201 55.4405 25.6801V32.8801H55.5205Z" fill="white"></path><path d="M70.8 1.51953C72.8 1.51953 74.48 3.03953 74.48 5.03953C74.48 7.03953 72.8 8.63953 70.8 8.63953C68.8 8.63953 67.04 7.03953 67.04 5.03953C67.04 3.03953 68.72 1.51953 70.8 1.51953ZM73.76 32.8795H67.76V12.5595H73.76V32.8795Z" fill="white"></path><path d="M84.5601 24.4801C78.4801 22.8001 78.4801 19.7601 78.4801 17.8401C78.5601 14.8001 82.0801 12.0801 86.4001 12.0801C90.4001 12.0801 94.6401 13.8401 94.7201 18.8001H89.0401C88.9601 17.2801 87.6801 17.0401 86.7201 17.0401C85.4401 17.0401 84.5601 17.6801 84.5601 18.5601C84.6401 19.2001 85.1201 19.7601 86.3201 20.0801L89.7601 20.9601C94.6401 22.3201 95.2801 25.6001 95.2801 26.8801C95.2801 31.2001 90.8001 33.2001 86.5601 33.2001C82.4801 33.2001 78.1601 30.7201 78.0801 26.1601H83.6801C83.7601 27.3601 85.0401 28.4801 86.6401 28.4801C88.0001 28.4001 89.1201 27.8401 89.1201 26.8001C89.1201 25.9201 88.6401 25.4401 87.1201 25.0401L84.5601 24.4801Z" fill="white"></path><path d="M118.16 29.1201C116.16 32.1601 112.32 33.2801 108.96 33.2801C103.12 33.2801 98.4004 29.0401 98.4004 22.6401C98.4004 16.2401 103.2 12.0801 108.96 12.0801C114.72 12.0801 119.28 16.4001 119.28 22.8001C119.28 23.3601 119.2 24.1601 119.2 24.6401H104.4C104.72 26.9601 107.28 28.0001 109.36 28.0001C111.04 28.0001 112.8 27.3601 113.76 26.0801L118.16 29.1201ZM113.2 20.8801C112.88 18.4001 110.64 17.4401 108.96 17.4401C107.28 17.4401 104.96 18.3201 104.48 20.8801H113.2Z" fill="white"></path></g><defs><clipPath id="clip0_216_13828"><rect width="119.28" height="40" fill="white"></rect></clipPath></defs></svg> 