<?xml version="1.0" encoding="UTF-8"?> <svg xmlns="http://www.w3.org/2000/svg" width="160" height="160" viewBox="0 0 160 160" fill="none"><g clip-path="url(#clip0_286_14722)"><g filter="url(#filter0_d_286_14722)"><circle cx="80" cy="42.5" r="25" fill="#111111"></circle><circle cx="80" cy="42.5" r="26.25" stroke="url(#paint0_linear_286_14722)" stroke-width="2.5"></circle></g><path d="M68.0591 122.898L48.3784 122.897H44.2351C43.1993 122.897 42.1634 123.941 42.1634 126.027V134.371C42.1634 136.109 42.7849 137.5 45.2709 137.5H67.0233C68.0591 137.5 70.1308 136.457 70.1308 134.371V127.07C70.1308 126.027 70.1308 122.898 68.0591 122.898Z" fill="#D9D9D9" fill-opacity="0.1"></path><path d="M43.1993 70.747L41.1276 44.6743C41.1276 41.547 31.0334 42.0133 30.7693 44.6727C29.3882 58.5789 26.8332 87.0171 27.6618 89.5204C28.4905 92.0236 43.1993 107.947 50.4501 115.596L48.3784 122.897M48.3784 122.897L68.0591 122.898M48.3784 122.897H44.2351C43.1993 122.897 42.1634 123.941 42.1634 126.027C42.1634 127.696 42.1634 132.633 42.1634 134.371C42.1634 136.109 42.7849 137.5 45.2709 137.5C47.7569 137.5 59.7725 137.5 67.0233 137.5C68.0591 137.5 70.1308 136.457 70.1308 134.371C70.1308 131.033 70.1308 128.113 70.1308 127.07C70.1308 126.027 70.1308 122.898 68.0591 122.898M68.0591 122.898C73.2383 110.382 74.2741 109.339 69.095 102.037C67.3046 99.5123 63.5322 90.176 60.8083 87.4343C58.0845 84.6927 43.1993 81.1763 43.1993 81.1763C40.0918 80.1341 36.9843 86.3922 40.0918 88.4774L53.5575 94.7355" stroke="url(#paint1_linear_286_14722)" stroke-width="2.5" stroke-linecap="round"></path><path d="M91.9409 122.898L111.622 122.897H115.765C116.801 122.897 117.837 123.941 117.837 126.027V134.371C117.837 136.109 117.215 137.5 114.729 137.5H92.9767C91.9409 137.5 89.8692 136.457 89.8692 134.371V127.07C89.8692 126.027 89.8692 122.898 91.9409 122.898Z" fill="#D9D9D9" fill-opacity="0.1"></path><path d="M116.801 70.747L118.872 44.6743C118.872 41.547 128.967 42.0133 129.231 44.6727C130.612 58.5789 133.167 87.0171 132.338 89.5204C131.51 92.0236 116.801 107.947 109.55 115.596L111.622 122.897M111.622 122.897L91.9409 122.898M111.622 122.897H115.765C116.801 122.897 117.837 123.941 117.837 126.027C117.837 127.696 117.837 132.633 117.837 134.371C117.837 136.109 117.215 137.5 114.729 137.5C112.243 137.5 100.227 137.5 92.9767 137.5C91.9409 137.5 89.8692 136.457 89.8692 134.371C89.8692 131.033 89.8692 128.113 89.8692 127.07C89.8692 126.027 89.8692 122.898 91.9409 122.898M91.9409 122.898C86.7617 110.382 85.7259 109.339 90.905 102.037C92.6954 99.5123 96.4678 90.176 99.1917 87.4343C101.916 84.6927 116.801 81.1763 116.801 81.1763C119.908 80.1341 123.016 86.3922 119.908 88.4774L106.442 94.7355" stroke="url(#paint2_linear_286_14722)" stroke-width="2.5" stroke-linecap="round"></path><path d="M81.8918 31.7556V33.3181C83.1764 33.5626 84.3698 34.1214 85.3521 34.9381C86.3343 35.7548 87.0707 36.8007 87.487 37.9705C87.5389 38.3818 87.4346 38.7971 87.1927 39.143C86.9507 39.4889 86.5866 39.7432 86.1648 39.8608C85.7429 39.9785 85.2905 39.952 84.8874 39.786C84.4843 39.6199 84.1565 39.3251 83.962 38.9537C83.7278 38.3969 83.349 37.9042 82.8603 37.5209C82.3715 37.1375 81.7885 36.8756 81.1644 36.7591C79.7283 36.5221 77.8446 36.724 77.1172 37.7423C76.9274 38.0313 76.8308 38.3659 76.8391 38.7056C76.8474 39.0453 76.9602 39.3754 77.1638 39.6559C77.742 40.5337 79.1968 40.9112 80.7355 41.3062C83.0108 41.8943 85.8457 42.6317 86.8529 45.4845C87.7294 47.9775 86.284 50.5846 83.4211 51.6994C82.9279 51.8885 82.4155 52.0297 81.8918 52.1208V53.2444C81.8918 53.71 81.6953 54.1565 81.3455 54.4858C80.9958 54.815 80.5214 55 80.0267 55C79.5321 55 79.0577 54.815 78.7079 54.4858C78.3582 54.1565 78.1617 53.71 78.1617 53.2444V51.9803C77.6803 51.8707 77.2093 51.7239 76.7535 51.5414C75.7938 51.161 74.927 50.5994 74.2069 49.8913C73.4867 49.1832 72.9284 48.3437 72.5665 47.4245C72.4413 46.995 72.4942 46.5368 72.7145 46.1426C72.9348 45.7485 73.306 45.4478 73.7529 45.3017C74.1998 45.1555 74.6891 45.1746 75.1215 45.3553C75.554 45.5359 75.8974 45.8646 76.0821 46.2746C76.2911 46.7305 76.594 47.1429 76.9734 47.4879C77.3527 47.833 77.801 48.1038 78.2922 48.2848C78.8737 48.5381 79.5029 48.6801 80.1432 48.7027C80.7836 48.7253 81.4223 48.628 82.0223 48.4164C82.6192 48.1882 83.6823 47.5211 83.3372 46.5555C82.9922 45.5899 81.7799 45.1949 79.7656 44.6594C77.7513 44.1239 75.3734 43.527 74.0212 41.4905C73.4293 40.6352 73.1142 39.6365 73.1142 38.6157C73.1142 37.5949 73.4293 36.5962 74.0212 35.7409C74.5109 35.1064 75.1286 34.5689 75.839 34.1592C76.5495 33.7495 77.3387 33.4757 78.1617 33.3532V31.7556C78.1617 31.29 78.3582 30.8435 78.7079 30.5142C79.0577 30.185 79.5321 30 80.0267 30C80.5214 30 80.9958 30.185 81.3455 30.5142C81.6953 30.8435 81.8918 31.29 81.8918 31.7556Z" fill="url(#paint3_linear_286_14722)"></path></g><defs><filter id="filter0_d_286_14722" x="35" y="-2.5" width="90" height="90" filterUnits="userSpaceOnUse" color-interpolation-filters="sRGB"><feFlood flood-opacity="0" result="BackgroundImageFix"></feFlood><feColorMatrix in="SourceAlpha" type="matrix" values="0 0 0 0 0 0 0 0 0 0 0 0 0 0 0 0 0 0 127 0" result="hardAlpha"></feColorMatrix><feOffset></feOffset><feGaussianBlur stdDeviation="8.75"></feGaussianBlur><feComposite in2="hardAlpha" operator="out"></feComposite><feColorMatrix type="matrix" values="0 0 0 0 0.2 0 0 0 0 0.617255 0 0 0 0 1 0 0 0 0.32 0"></feColorMatrix><feBlend mode="normal" in2="BackgroundImageFix" result="effect1_dropShadow_286_14722"></feBlend><feBlend mode="normal" in="SourceGraphic" in2="effect1_dropShadow_286_14722" result="shape"></feBlend></filter><linearGradient id="paint0_linear_286_14722" x1="79.7502" y1="19.1484" x2="71.7423" y2="66.1754" gradientUnits="userSpaceOnUse"><stop stop-color="#EAF5FF"></stop><stop offset="0.335" stop-color="#B7DDFF"></stop><stop offset="0.68" stop-color="#6BB8FF"></stop><stop offset="1" stop-color="#005FB6"></stop></linearGradient><linearGradient id="paint1_linear_286_14722" x1="49.7752" y1="45.6319" x2="20.5056" y2="127.052" gradientUnits="userSpaceOnUse"><stop stop-color="white" stop-opacity="0.8"></stop><stop offset="0.506573" stop-color="#E2E2E2" stop-opacity="0.9"></stop><stop offset="1" stop-color="#888888"></stop></linearGradient><linearGradient id="paint2_linear_286_14722" x1="110.225" y1="45.6319" x2="139.494" y2="127.052" gradientUnits="userSpaceOnUse"><stop stop-color="white" stop-opacity="0.8"></stop><stop offset="0.506573" stop-color="#E2E2E2" stop-opacity="0.9"></stop><stop offset="1" stop-color="#888888"></stop></linearGradient><linearGradient id="paint3_linear_286_14722" x1="79.9251" y1="30.8242" x2="73.5701" y2="53.2159" gradientUnits="userSpaceOnUse"><stop stop-color="#55C4F4"></stop><stop offset="0.515" stop-color="#0085FF"></stop><stop offset="1" stop-color="#005FB6"></stop></linearGradient><clipPath id="clip0_286_14722"><rect width="160" height="160" fill="white"></rect></clipPath></defs></svg> 