<?xml version="1.0" encoding="UTF-8"?> <svg xmlns="http://www.w3.org/2000/svg" width="160" height="160" viewBox="0 0 160 160" fill="none"><path d="M60.75 52.7049C53.7961 52.9514 43.4312 55.4267 41.3351 67.8293C40.9882 73.3971 44.4394 84.5221 60.75 85.5516M60.75 119.193C54.0891 119.074 41.3351 116.394 41.3351 108M40.1026 67.621L40.0916 67.6859L40.0875 67.7515C39.8929 70.8744 40.7829 75.5142 44.0522 79.4597C47.205 83.2648 52.4648 86.2979 60.75 86.804L60.75 117.943C57.7733 117.887 53.497 117.296 49.8143 115.869C45.5273 114.207 42.5851 111.655 42.5851 108L40.0851 108C40.0851 113.301 44.4022 116.452 48.911 118.2C52.9205 119.754 57.5115 120.388 60.75 120.443L60.75 133.735C54.2487 133.581 47.8282 132.226 41.8135 129.735C35.4135 127.084 29.5984 123.198 24.7001 118.3C19.8018 113.402 15.9163 107.586 13.2654 101.187C10.6144 94.7866 9.25 87.9272 9.25 81C9.25 74.0728 10.6144 67.2134 13.2654 60.8135C15.9163 54.4135 19.8018 48.5984 24.7001 43.7001C29.5984 38.8018 35.4135 34.9163 41.8134 32.2654C47.8282 29.774 54.2487 28.4189 60.75 28.2648L60.75 51.4541C57.3732 51.5696 53.1331 52.1934 49.3325 54.2133C44.981 56.526 41.2835 60.6333 40.1026 67.621ZM60.75 53.9557L60.75 84.2991C53.1353 83.8019 48.6034 81.0342 45.9772 77.8647C43.1947 74.5066 42.4342 70.5576 42.5789 67.9716C43.6353 61.8299 46.8165 58.3816 50.5058 56.4209C53.8206 54.6591 57.6048 54.0715 60.75 53.9557Z" fill="#D9D9D9" fill-opacity="0.1" stroke="url(#paint0_linear_286_14732)" stroke-width="2.5"></path><path d="M99.25 52.552C106.424 51.9539 118.665 53.4495 118.665 63.8781M99.25 119.146C106.116 118.741 117.756 114.95 117.756 102.073C117.97 96.8333 114.519 86.49 99.25 85.9549M116.507 102.022L116.506 102.048L116.506 102.073C116.506 108.434 113.486 112.337 109.686 114.706C106.306 116.813 102.294 117.704 99.25 117.894L99.25 87.2057C106.364 87.464 110.637 89.927 113.142 92.8062C115.826 95.8922 116.606 99.6004 116.507 102.022ZM115.028 91.1654C111.986 87.6691 106.995 84.9665 99.25 84.7042L99.25 53.8064C102.511 53.5228 106.864 53.6928 110.498 54.9807C112.515 55.6954 114.24 56.7291 115.455 58.1502C116.651 59.5494 117.415 61.395 117.415 63.8781L119.915 63.8781C119.915 60.8294 118.957 58.4 117.355 56.5257C115.771 54.6733 113.621 53.4351 111.333 52.6242C107.347 51.2116 102.726 51.0194 99.25 51.2978L99.25 28.2648C105.751 28.4189 112.172 29.774 118.187 32.2654C124.586 34.9163 130.402 38.8018 135.3 43.7001C140.198 48.5984 144.084 54.4135 146.735 60.8134C149.386 67.2134 150.75 74.0728 150.75 81C150.75 87.9272 149.386 94.7866 146.735 101.187C144.084 107.586 140.198 113.402 135.3 118.3C130.402 123.198 124.586 127.084 118.187 129.735C112.172 132.226 105.751 133.581 99.25 133.735L99.25 120.398C102.634 120.209 107.143 119.237 111.009 116.827C115.435 114.068 118.998 109.42 119.006 102.098C119.12 99.1407 118.184 94.7938 115.028 91.1654Z" fill="#D9D9D9" fill-opacity="0.1" stroke="url(#paint1_linear_286_14732)" stroke-width="2.5"></path><g filter="url(#filter0_d_286_14732)"><line x1="73" y1="36" x2="89" y2="36" stroke="#0085FF" stroke-width="6" stroke-linecap="round"></line></g><g filter="url(#filter1_d_286_14732)"><line x1="73" y1="64" x2="89" y2="64" stroke="#0085FF" stroke-width="6" stroke-linecap="round"></line></g><g filter="url(#filter2_d_286_14732)"><line x1="73" y1="92" x2="89" y2="92" stroke="#0085FF" stroke-width="6" stroke-linecap="round"></line></g><g filter="url(#filter3_d_286_14732)"><line x1="77" y1="120" x2="85" y2="120" stroke="#0085FF" stroke-width="6" stroke-linecap="round"></line></g><g filter="url(#filter4_d_286_14732)"><line x1="79" y1="106" x2="83" y2="106" stroke="#0085FF" stroke-width="6" stroke-linecap="round"></line></g><g filter="url(#filter5_d_286_14732)"><line x1="75" y1="78" x2="87" y2="78" stroke="#0085FF" stroke-width="6" stroke-linecap="round"></line></g><g filter="url(#filter6_d_286_14732)"><line x1="79" y1="50" x2="83" y2="50" stroke="#0085FF" stroke-width="6" stroke-linecap="round"></line></g><defs><filter id="filter0_d_286_14732" x="62" y="25" width="38" height="22" filterUnits="userSpaceOnUse" color-interpolation-filters="sRGB"><feFlood flood-opacity="0" result="BackgroundImageFix"></feFlood><feColorMatrix in="SourceAlpha" type="matrix" values="0 0 0 0 0 0 0 0 0 0 0 0 0 0 0 0 0 0 127 0" result="hardAlpha"></feColorMatrix><feOffset></feOffset><feGaussianBlur stdDeviation="4"></feGaussianBlur><feComposite in2="hardAlpha" operator="out"></feComposite><feColorMatrix type="matrix" values="0 0 0 0 0.2 0 0 0 0 0.617255 0 0 0 0 1 0 0 0 0.32 0"></feColorMatrix><feBlend mode="normal" in2="BackgroundImageFix" result="effect1_dropShadow_286_14732"></feBlend><feBlend mode="normal" in="SourceGraphic" in2="effect1_dropShadow_286_14732" result="shape"></feBlend></filter><filter id="filter1_d_286_14732" x="62" y="53" width="38" height="22" filterUnits="userSpaceOnUse" color-interpolation-filters="sRGB"><feFlood flood-opacity="0" result="BackgroundImageFix"></feFlood><feColorMatrix in="SourceAlpha" type="matrix" values="0 0 0 0 0 0 0 0 0 0 0 0 0 0 0 0 0 0 127 0" result="hardAlpha"></feColorMatrix><feOffset></feOffset><feGaussianBlur stdDeviation="4"></feGaussianBlur><feComposite in2="hardAlpha" operator="out"></feComposite><feColorMatrix type="matrix" values="0 0 0 0 0.2 0 0 0 0 0.617255 0 0 0 0 1 0 0 0 0.32 0"></feColorMatrix><feBlend mode="normal" in2="BackgroundImageFix" result="effect1_dropShadow_286_14732"></feBlend><feBlend mode="normal" in="SourceGraphic" in2="effect1_dropShadow_286_14732" result="shape"></feBlend></filter><filter id="filter2_d_286_14732" x="62" y="81" width="38" height="22" filterUnits="userSpaceOnUse" color-interpolation-filters="sRGB"><feFlood flood-opacity="0" result="BackgroundImageFix"></feFlood><feColorMatrix in="SourceAlpha" type="matrix" values="0 0 0 0 0 0 0 0 0 0 0 0 0 0 0 0 0 0 127 0" result="hardAlpha"></feColorMatrix><feOffset></feOffset><feGaussianBlur stdDeviation="4"></feGaussianBlur><feComposite in2="hardAlpha" operator="out"></feComposite><feColorMatrix type="matrix" values="0 0 0 0 0.2 0 0 0 0 0.617255 0 0 0 0 1 0 0 0 0.32 0"></feColorMatrix><feBlend mode="normal" in2="BackgroundImageFix" result="effect1_dropShadow_286_14732"></feBlend><feBlend mode="normal" in="SourceGraphic" in2="effect1_dropShadow_286_14732" result="shape"></feBlend></filter><filter id="filter3_d_286_14732" x="66" y="109" width="30" height="22" filterUnits="userSpaceOnUse" color-interpolation-filters="sRGB"><feFlood flood-opacity="0" result="BackgroundImageFix"></feFlood><feColorMatrix in="SourceAlpha" type="matrix" values="0 0 0 0 0 0 0 0 0 0 0 0 0 0 0 0 0 0 127 0" result="hardAlpha"></feColorMatrix><feOffset></feOffset><feGaussianBlur stdDeviation="4"></feGaussianBlur><feComposite in2="hardAlpha" operator="out"></feComposite><feColorMatrix type="matrix" values="0 0 0 0 0.2 0 0 0 0 0.617255 0 0 0 0 1 0 0 0 0.32 0"></feColorMatrix><feBlend mode="normal" in2="BackgroundImageFix" result="effect1_dropShadow_286_14732"></feBlend><feBlend mode="normal" in="SourceGraphic" in2="effect1_dropShadow_286_14732" result="shape"></feBlend></filter><filter id="filter4_d_286_14732" x="68" y="95" width="26" height="22" filterUnits="userSpaceOnUse" color-interpolation-filters="sRGB"><feFlood flood-opacity="0" result="BackgroundImageFix"></feFlood><feColorMatrix in="SourceAlpha" type="matrix" values="0 0 0 0 0 0 0 0 0 0 0 0 0 0 0 0 0 0 127 0" result="hardAlpha"></feColorMatrix><feOffset></feOffset><feGaussianBlur stdDeviation="4"></feGaussianBlur><feComposite in2="hardAlpha" operator="out"></feComposite><feColorMatrix type="matrix" values="0 0 0 0 0.2 0 0 0 0 0.617255 0 0 0 0 1 0 0 0 0.32 0"></feColorMatrix><feBlend mode="normal" in2="BackgroundImageFix" result="effect1_dropShadow_286_14732"></feBlend><feBlend mode="normal" in="SourceGraphic" in2="effect1_dropShadow_286_14732" result="shape"></feBlend></filter><filter id="filter5_d_286_14732" x="64" y="67" width="34" height="22" filterUnits="userSpaceOnUse" color-interpolation-filters="sRGB"><feFlood flood-opacity="0" result="BackgroundImageFix"></feFlood><feColorMatrix in="SourceAlpha" type="matrix" values="0 0 0 0 0 0 0 0 0 0 0 0 0 0 0 0 0 0 127 0" result="hardAlpha"></feColorMatrix><feOffset></feOffset><feGaussianBlur stdDeviation="4"></feGaussianBlur><feComposite in2="hardAlpha" operator="out"></feComposite><feColorMatrix type="matrix" values="0 0 0 0 0.2 0 0 0 0 0.617255 0 0 0 0 1 0 0 0 0.32 0"></feColorMatrix><feBlend mode="normal" in2="BackgroundImageFix" result="effect1_dropShadow_286_14732"></feBlend><feBlend mode="normal" in="SourceGraphic" in2="effect1_dropShadow_286_14732" result="shape"></feBlend></filter><filter id="filter6_d_286_14732" x="68" y="39" width="26" height="22" filterUnits="userSpaceOnUse" color-interpolation-filters="sRGB"><feFlood flood-opacity="0" result="BackgroundImageFix"></feFlood><feColorMatrix in="SourceAlpha" type="matrix" values="0 0 0 0 0 0 0 0 0 0 0 0 0 0 0 0 0 0 127 0" result="hardAlpha"></feColorMatrix><feOffset></feOffset><feGaussianBlur stdDeviation="4"></feGaussianBlur><feComposite in2="hardAlpha" operator="out"></feComposite><feColorMatrix type="matrix" values="0 0 0 0 0.2 0 0 0 0 0.617255 0 0 0 0 1 0 0 0 0.32 0"></feColorMatrix><feBlend mode="normal" in2="BackgroundImageFix" result="effect1_dropShadow_286_14732"></feBlend><feBlend mode="normal" in="SourceGraphic" in2="effect1_dropShadow_286_14732" result="shape"></feBlend></filter><linearGradient id="paint0_linear_286_14732" x1="9.78022" y1="81.5396" x2="61.666" y2="85.9572" gradientUnits="userSpaceOnUse"><stop stop-color="white" stop-opacity="0.8"></stop><stop offset="0.506573" stop-color="#E2E2E2" stop-opacity="0.9"></stop><stop offset="1" stop-color="#888888"></stop></linearGradient><linearGradient id="paint1_linear_286_14732" x1="150.22" y1="80.4604" x2="98.334" y2="76.0428" gradientUnits="userSpaceOnUse"><stop stop-color="white" stop-opacity="0.8"></stop><stop offset="0.506573" stop-color="#E2E2E2" stop-opacity="0.9"></stop><stop offset="1" stop-color="#888888"></stop></linearGradient></defs></svg> 