<?xml version="1.0" encoding="UTF-8"?> <svg xmlns="http://www.w3.org/2000/svg" width="160" height="160" viewBox="0 0 160 160" fill="none"><g clip-path="url(#clip0_286_14727)"><circle cx="80" cy="86" r="6" fill="url(#paint0_linear_286_14727)"></circle><path d="M33.9296 67.3694C36.5239 60.9964 40.3264 55.2058 45.12 50.3281L80.082 85.903L118.126 124.614C113.332 129.492 107.641 133.361 101.378 136.001C95.115 138.64 88.4022 139.999 81.6229 139.999C74.8437 139.999 68.1309 138.64 61.8677 136.001C55.6045 133.361 49.9136 129.492 45.12 124.614C40.3264 119.736 36.5239 113.946 33.9296 107.573C31.3353 101.2 30 94.3691 30 87.471C30 80.573 31.3353 73.7424 33.9296 67.3694Z" fill="#D9D9D9" fill-opacity="0.1"></path><path d="M80.082 85.903L93.1803 72.575M45.12 50.3281C40.3264 55.2058 36.5239 60.9964 33.9296 67.3694C31.3353 73.7424 30 80.573 30 87.471C30 94.3691 31.3353 101.2 33.9296 107.573C36.5239 113.946 40.3264 119.736 45.12 124.614C49.9136 129.492 55.6045 133.361 61.8677 136.001C68.1309 138.64 74.8437 139.999 81.6229 139.999C88.4022 139.999 95.115 138.64 101.378 136.001C107.641 133.361 113.332 129.492 118.126 124.614L45.12 50.3281Z" stroke="url(#paint1_linear_286_14727)" stroke-width="2.5" stroke-linecap="round"></path><path d="M128.036 106C130.653 99.6184 132 92.7786 132 85.8712C132 78.9638 130.653 72.124 128.036 65.7423C125.419 59.3607 121.584 53.5622 116.748 48.678M116.748 48.678C111.913 43.7937 106.172 39.9192 99.8547 37.2759C93.5369 34.6325 86.7656 33.272 79.9273 33.272M116.748 48.678L126.56 38.7668M79.9273 33.272C73.0891 33.272 66.3177 34.6325 60 37.2759M79.9273 33.272L79.9273 16M79.9273 16L91.5854 16M79.9273 16L69.0465 16" stroke="url(#paint2_linear_286_14727)" stroke-width="2.5" stroke-linecap="round"></path><g filter="url(#filter0_d_286_14727)"><line x1="24.2425" y1="28.0357" x2="138.036" y2="143.758" stroke="#0085FF" stroke-width="6" stroke-linecap="round"></line></g></g><defs><filter id="filter0_d_286_14727" x="-0.757324" y="3.03613" width="163.793" height="165.722" filterUnits="userSpaceOnUse" color-interpolation-filters="sRGB"><feFlood flood-opacity="0" result="BackgroundImageFix"></feFlood><feColorMatrix in="SourceAlpha" type="matrix" values="0 0 0 0 0 0 0 0 0 0 0 0 0 0 0 0 0 0 127 0" result="hardAlpha"></feColorMatrix><feOffset></feOffset><feGaussianBlur stdDeviation="11"></feGaussianBlur><feComposite in2="hardAlpha" operator="out"></feComposite><feColorMatrix type="matrix" values="0 0 0 0 0.2 0 0 0 0 0.617255 0 0 0 0 1 0 0 0 0.32 0"></feColorMatrix><feBlend mode="normal" in2="BackgroundImageFix" result="effect1_dropShadow_286_14727"></feBlend><feBlend mode="normal" in="SourceGraphic" in2="effect1_dropShadow_286_14727" result="shape"></feBlend></filter><linearGradient id="paint0_linear_286_14727" x1="79.94" y1="80.3956" x2="78.0181" y2="91.6821" gradientUnits="userSpaceOnUse"><stop stop-color="white" stop-opacity="0.8"></stop><stop offset="0.506573" stop-color="#E2E2E2" stop-opacity="0.9"></stop><stop offset="1" stop-color="#888888"></stop></linearGradient><linearGradient id="paint1_linear_286_14727" x1="73.6227" y1="53.2843" x2="59.0238" y2="137.539" gradientUnits="userSpaceOnUse"><stop stop-color="white" stop-opacity="0.8"></stop><stop offset="0.506573" stop-color="#E2E2E2" stop-opacity="0.9"></stop><stop offset="1" stop-color="#888888"></stop></linearGradient><linearGradient id="paint2_linear_286_14727" x1="96.3597" y1="103.033" x2="114.096" y2="19.7051" gradientUnits="userSpaceOnUse"><stop stop-color="white" stop-opacity="0.8"></stop><stop offset="0.506573" stop-color="#E2E2E2" stop-opacity="0.9"></stop><stop offset="1" stop-color="#888888"></stop></linearGradient><clipPath id="clip0_286_14727"><rect width="160" height="160" fill="white"></rect></clipPath></defs></svg> 