<?xml version="1.0" encoding="UTF-8"?> <svg xmlns="http://www.w3.org/2000/svg" width="32" height="33" viewBox="0 0 32 33" fill="none"><path d="M28.2325 13.8017C27.7612 13.3092 27.2738 12.8017 27.09 12.3555C26.92 11.9467 26.91 11.2692 26.9 10.613C26.8813 9.39297 26.8612 8.01047 25.9 7.04922C24.9387 6.08797 23.5562 6.06797 22.3363 6.04922C21.68 6.03922 21.0025 6.02922 20.5938 5.85922C20.1488 5.67547 19.64 5.18797 19.1475 4.71672C18.285 3.88797 17.305 2.94922 16 2.94922C14.695 2.94922 13.7162 3.88797 12.8525 4.71672C12.36 5.18797 11.8525 5.67547 11.4062 5.85922C11 6.02922 10.32 6.03922 9.66375 6.04922C8.44375 6.06797 7.06125 6.08797 6.1 7.04922C5.13875 8.01047 5.125 9.39297 5.1 10.613C5.09 11.2692 5.08 11.9467 4.91 12.3555C4.72625 12.8005 4.23875 13.3092 3.7675 13.8017C2.93875 14.6642 2 15.6442 2 16.9492C2 18.2542 2.93875 19.233 3.7675 20.0967C4.23875 20.5892 4.72625 21.0967 4.91 21.543C5.08 21.9517 5.09 22.6292 5.1 23.2855C5.11875 24.5055 5.13875 25.888 6.1 26.8492C7.06125 27.8105 8.44375 27.8305 9.66375 27.8492C10.32 27.8592 10.9975 27.8692 11.4062 28.0392C11.8512 28.223 12.36 28.7105 12.8525 29.1817C13.715 30.0105 14.695 30.9492 16 30.9492C17.305 30.9492 18.2837 30.0105 19.1475 29.1817C19.64 28.7105 20.1475 28.223 20.5938 28.0392C21.0025 27.8692 21.68 27.8592 22.3363 27.8492C23.5562 27.8305 24.9387 27.8105 25.9 26.8492C26.8612 25.888 26.8813 24.5055 26.9 23.2855C26.91 22.6292 26.92 21.9517 27.09 21.543C27.2738 21.098 27.7612 20.5892 28.2325 20.0967C29.0613 19.2342 30 18.2542 30 16.9492C30 15.6442 29.0613 14.6655 28.2325 13.8017ZM21.7075 14.6567L14.7075 21.6567C14.6146 21.7497 14.5043 21.8235 14.3829 21.8738C14.2615 21.9241 14.1314 21.95 14 21.95C13.8686 21.95 13.7385 21.9241 13.6171 21.8738C13.4957 21.8235 13.3854 21.7497 13.2925 21.6567L10.2925 18.6567C10.1049 18.4691 9.99944 18.2146 9.99944 17.9492C9.99944 17.6839 10.1049 17.4294 10.2925 17.2417C10.4801 17.0541 10.7346 16.9487 11 16.9487C11.2654 16.9487 11.5199 17.0541 11.7075 17.2417L14 19.5355L20.2925 13.2417C20.3854 13.1488 20.4957 13.0751 20.6171 13.0248C20.7385 12.9745 20.8686 12.9487 21 12.9487C21.1314 12.9487 21.2615 12.9745 21.3829 13.0248C21.5043 13.0751 21.6146 13.1488 21.7075 13.2417C21.8004 13.3346 21.8741 13.4449 21.9244 13.5663C21.9747 13.6877 22.0006 13.8178 22.0006 13.9492C22.0006 14.0806 21.9747 14.2107 21.9244 14.3321C21.8741 14.4535 21.8004 14.5638 21.7075 14.6567Z" fill="#B8B8B8"></path></svg> 