<?xml version="1.0" encoding="UTF-8"?> <svg xmlns="http://www.w3.org/2000/svg" width="176" height="81" viewBox="0 0 176 81" fill="none"><g clip-path="url(#clip0_271_17780)"><rect y="49" width="32" height="32" rx="8" fill="#00B67A"></rect><path d="M16.0001 56L18.2502 62.8685H25.4739L19.612 67.1317L21.862 74.0002L16.0001 69.737L10.1382 74.0002L12.3883 67.1317L6.52637 62.8685H13.7501L16.0001 56Z" fill="#FCFCFD" fill-opacity="0.95"></path><path d="M19.6119 67.1318L16 69.7371L20.0856 68.6121L19.6119 67.1318Z" fill="#00B67A"></path><rect x="36" y="49" width="32" height="32" rx="8" fill="#00B67A"></rect><path d="M52.0001 56L54.2502 62.8685H61.4739L55.612 67.1317L57.862 74.0002L52.0001 69.737L46.1382 74.0002L48.3883 67.1317L42.5264 62.8685H49.7501L52.0001 56Z" fill="#FCFCFD" fill-opacity="0.95"></path><path d="M55.6119 67.1318L52 69.7371L56.0856 68.6121L55.6119 67.1318Z" fill="#00B67A"></path><rect x="72" y="49" width="32" height="32" rx="8" fill="#00B67A"></rect><path d="M88.0001 56L90.2502 62.8685H97.4739L91.612 67.1317L93.862 74.0002L88.0001 69.737L82.1382 74.0002L84.3883 67.1317L78.5264 62.8685H85.7501L88.0001 56Z" fill="#FCFCFD" fill-opacity="0.95"></path><path d="M91.6119 67.1318L88 69.7371L92.0856 68.6121L91.6119 67.1318Z" fill="#00B67A"></path><rect x="108" y="49" width="32" height="32" rx="8" fill="#00B67A"></rect><path d="M124 56L126.25 62.8685H133.474L127.612 67.1317L129.862 74.0002L124 69.737L118.138 74.0002L120.388 67.1317L114.526 62.8685H121.75L124 56Z" fill="#FCFCFD" fill-opacity="0.95"></path><path d="M127.612 67.1318L124 69.7371L128.086 68.6121L127.612 67.1318Z" fill="#00B67A"></path><rect x="144" y="49" width="32" height="32" rx="8" fill="#00B67A"></rect><path d="M160 56L162.25 62.8685H169.474L163.612 67.1317L165.862 74.0002L160 69.737L154.138 74.0002L156.388 67.1317L150.526 62.8685H157.75L160 56Z" fill="#FCFCFD" fill-opacity="0.95"></path><path d="M163.612 67.1318L160 69.7371L164.086 68.6121L163.612 67.1318Z" fill="#00B67A"></path><path d="M160 49H168C172.418 49 176 52.5817 176 57V73C176 77.4183 172.418 81 168 81H160V49Z" fill="#535353"></path><path d="M160 56L162.25 62.8685H169.474L163.612 67.1317L165.862 74.0002L160 69.737L154.138 74.0002L156.388 67.1317L150.526 62.8685H157.75L160 56Z" fill="#FCFCFD" fill-opacity="0.95"></path><path d="M163.612 67.1318L160 69.7371L164.086 68.6121L163.612 67.1318Z" fill="#B8B8B8"></path><g clip-path="url(#clip1_271_17780)"><path d="M51.6248 12.793H66.5064V15.5695H60.655V31.1777H57.4373V15.5695H51.6118V12.793H51.6248ZM65.8707 17.866H68.6213V20.4349H68.6732C68.764 20.0716 68.9326 19.7213 69.1792 19.384C69.4257 19.0466 69.7241 18.7223 70.0744 18.4498C70.4247 18.1644 70.8139 17.9438 71.2421 17.7622C71.6702 17.5935 72.1114 17.5027 72.5525 17.5027C72.8898 17.5027 73.1364 17.5157 73.2661 17.5286C73.3958 17.5416 73.5256 17.5675 73.6683 17.5805V20.4089C73.4607 20.37 73.2531 20.3441 73.0326 20.3181C72.812 20.2922 72.6044 20.2792 72.3968 20.2792C71.9038 20.2792 71.4367 20.383 70.9956 20.5776C70.5544 20.7722 70.1782 21.0706 69.8538 21.4469C69.5295 21.8361 69.27 22.3032 69.0754 22.8741C68.8807 23.445 68.7899 24.0937 68.7899 24.8332V31.1647H65.8577V17.866H65.8707ZM87.1487 31.1777H84.2684V29.3224H84.2165C83.8532 29.997 83.3213 30.529 82.6077 30.9312C81.8941 31.3334 81.1675 31.541 80.428 31.541C78.6764 31.541 77.4049 31.1128 76.6265 30.2435C75.848 29.3743 75.4588 28.0638 75.4588 26.3123V17.866H78.391V26.0269C78.391 27.1946 78.6116 28.0249 79.0657 28.505C79.5068 28.985 80.1425 29.2315 80.9469 29.2315C81.5697 29.2315 82.0757 29.1407 82.4909 28.9461C82.9061 28.7515 83.2434 28.505 83.4899 28.1806C83.7494 27.8692 83.9311 27.48 84.0478 27.0389C84.1646 26.5977 84.2165 26.1177 84.2165 25.5987V17.8789H87.1487V31.1777ZM92.1439 26.9091C92.2347 27.7654 92.559 28.3623 93.1169 28.7126C93.6878 29.0499 94.3625 29.2315 95.1539 29.2315C95.4264 29.2315 95.7378 29.2056 96.0881 29.1667C96.4384 29.1277 96.7757 29.0369 97.0741 28.9202C97.3855 28.8034 97.632 28.6217 97.8396 28.3882C98.0342 28.1547 98.1251 27.8563 98.1121 27.48C98.0991 27.1037 97.9564 26.7924 97.6969 26.5588C97.4374 26.3123 97.1131 26.1307 96.7108 25.975C96.3086 25.8322 95.8545 25.7025 95.3356 25.5987C94.8166 25.4949 94.2976 25.3781 93.7657 25.2614C93.2207 25.1446 92.6888 24.9889 92.1828 24.8202C91.6768 24.6516 91.2227 24.418 90.8205 24.1196C90.4183 23.8342 90.0939 23.4579 89.8604 23.0038C89.6138 22.5497 89.4971 21.9918 89.4971 21.3172C89.4971 20.5906 89.6787 19.9938 90.029 19.5007C90.3793 19.0077 90.8334 18.6185 91.3654 18.3201C91.9103 18.0217 92.5071 17.8141 93.1688 17.6843C93.8305 17.5675 94.4663 17.5027 95.0631 17.5027C95.7507 17.5027 96.4124 17.5805 97.0352 17.7232C97.658 17.866 98.2288 18.0995 98.7348 18.4368C99.2409 18.7612 99.656 19.1893 99.9934 19.7083C100.331 20.2273 100.538 20.863 100.629 21.6026H97.5672C97.4244 20.902 97.1131 20.4219 96.6071 20.1884C96.101 19.9419 95.5172 19.8251 94.8685 19.8251C94.6609 19.8251 94.4144 19.8381 94.1289 19.877C93.8435 19.9159 93.584 19.9808 93.3245 20.0716C93.078 20.1624 92.8704 20.3051 92.6888 20.4868C92.5201 20.6684 92.4293 20.902 92.4293 21.2004C92.4293 21.5637 92.559 21.8491 92.8055 22.0697C93.0521 22.2902 93.3764 22.4719 93.7786 22.6276C94.1808 22.7703 94.6349 22.9 95.1539 23.0038C95.6729 23.1076 96.2048 23.2244 96.7498 23.3412C97.2817 23.4579 97.8007 23.6136 98.3197 23.7823C98.8386 23.951 99.2928 24.1845 99.695 24.4829C100.097 24.7813 100.422 25.1446 100.668 25.5857C100.915 26.0269 101.044 26.5848 101.044 27.2335C101.044 28.0249 100.863 28.6866 100.499 29.2445C100.136 29.7894 99.669 30.2435 99.0981 30.5809C98.5273 30.9182 97.8785 31.1777 97.1779 31.3334C96.4773 31.4891 95.7767 31.5669 95.089 31.5669C94.2457 31.5669 93.4672 31.4761 92.7537 31.2815C92.0401 31.0869 91.4173 30.8014 90.8983 30.4252C90.3793 30.036 89.9642 29.5559 89.6657 28.985C89.3673 28.4142 89.2116 27.7265 89.1857 26.9351H92.1439V26.9091ZM101.823 17.866H104.041V13.8698H106.974V17.866H109.62V20.0586H106.974V27.1686C106.974 27.48 106.987 27.7395 107.013 27.973C107.038 28.1936 107.103 28.3882 107.194 28.5439C107.285 28.6996 107.428 28.8164 107.622 28.8942C107.817 28.9721 108.063 29.011 108.401 29.011C108.608 29.011 108.816 29.011 109.024 28.998C109.231 28.985 109.439 28.9591 109.646 28.9072V31.1777C109.322 31.2166 108.998 31.2426 108.699 31.2815C108.388 31.3204 108.076 31.3334 107.752 31.3334C106.974 31.3334 106.351 31.2555 105.884 31.1128C105.417 30.9701 105.04 30.7495 104.781 30.4641C104.508 30.1787 104.34 29.8284 104.236 29.4002C104.145 28.9721 104.08 28.479 104.067 27.9341V20.0846H101.849V17.866H101.823ZM111.696 17.866H114.473V19.6694H114.525C114.94 18.8909 115.511 18.346 116.25 18.0087C116.99 17.6713 117.781 17.5027 118.651 17.5027C119.701 17.5027 120.61 17.6843 121.388 18.0606C122.167 18.4239 122.815 18.9299 123.334 19.5786C123.853 20.2273 124.23 20.9798 124.489 21.8361C124.749 22.6924 124.878 23.6136 124.878 24.5867C124.878 25.4819 124.762 26.3512 124.528 27.1816C124.294 28.0249 123.944 28.7645 123.477 29.4132C123.01 30.0619 122.413 30.5679 121.687 30.9571C120.96 31.3464 120.117 31.541 119.131 31.541C118.702 31.541 118.274 31.5021 117.846 31.4242C117.418 31.3464 117.003 31.2166 116.614 31.048C116.224 30.8793 115.848 30.6587 115.524 30.3863C115.186 30.1138 114.914 29.8024 114.68 29.4521H114.628V36.095H111.696V17.866ZM121.946 24.5348C121.946 23.938 121.868 23.3541 121.713 22.7833C121.557 22.2124 121.323 21.7194 121.012 21.2782C120.701 20.8371 120.311 20.4868 119.857 20.2273C119.39 19.9678 118.858 19.8251 118.261 19.8251C117.029 19.8251 116.095 20.2533 115.472 21.1096C114.849 21.9659 114.538 23.1076 114.538 24.5348C114.538 25.2095 114.616 25.8322 114.784 26.4031C114.953 26.974 115.186 27.467 115.524 27.8822C115.848 28.2974 116.237 28.6217 116.691 28.8553C117.146 29.1018 117.677 29.2186 118.274 29.2186C118.949 29.2186 119.507 29.0758 119.974 28.8034C120.441 28.5309 120.817 28.1676 121.116 27.7395C121.414 27.2984 121.635 26.8053 121.764 26.2474C121.881 25.6895 121.946 25.1187 121.946 24.5348ZM127.123 12.793H130.055V15.5695H127.123V12.793ZM127.123 17.866H130.055V31.1777H127.123V17.866ZM132.676 12.793H135.608V31.1777H132.676V12.793ZM144.599 31.541C143.535 31.541 142.588 31.3593 141.758 31.009C140.928 30.6587 140.227 30.1657 139.643 29.5559C139.072 28.9331 138.631 28.1936 138.333 27.3373C138.034 26.481 137.879 25.5338 137.879 24.5089C137.879 23.4969 138.034 22.5627 138.333 21.7064C138.631 20.8501 139.072 20.1105 139.643 19.4878C140.214 18.865 140.928 18.3849 141.758 18.0346C142.588 17.6843 143.535 17.5027 144.599 17.5027C145.663 17.5027 146.61 17.6843 147.441 18.0346C148.271 18.3849 148.972 18.878 149.556 19.4878C150.126 20.1105 150.568 20.8501 150.866 21.7064C151.164 22.5627 151.32 23.4969 151.32 24.5089C151.32 25.5338 151.164 26.481 150.866 27.3373C150.568 28.1936 150.126 28.9331 149.556 29.5559C148.985 30.1787 148.271 30.6587 147.441 31.009C146.61 31.3593 145.663 31.541 144.599 31.541ZM144.599 29.2186C145.248 29.2186 145.819 29.0758 146.299 28.8034C146.779 28.5309 147.168 28.1676 147.48 27.7265C147.791 27.2854 148.012 26.7794 148.167 26.2215C148.31 25.6636 148.388 25.0927 148.388 24.5089C148.388 23.938 148.31 23.3801 148.167 22.8092C148.025 22.2383 147.791 21.7453 147.48 21.3042C147.168 20.863 146.779 20.5127 146.299 20.2403C145.819 19.9678 145.248 19.8251 144.599 19.8251C143.951 19.8251 143.38 19.9678 142.9 20.2403C142.42 20.5127 142.03 20.876 141.719 21.3042C141.408 21.7453 141.187 22.2383 141.031 22.8092C140.889 23.3801 140.811 23.938 140.811 24.5089C140.811 25.0927 140.889 25.6636 141.031 26.2215C141.174 26.7794 141.408 27.2854 141.719 27.7265C142.03 28.1676 142.42 28.5309 142.9 28.8034C143.38 29.0888 143.951 29.2186 144.599 29.2186ZM152.176 17.866H154.395V13.8698H157.327V17.866H159.974V20.0586H157.327V27.1686C157.327 27.48 157.34 27.7395 157.366 27.973C157.392 28.1936 157.457 28.3882 157.548 28.5439C157.639 28.6996 157.781 28.8164 157.976 28.8942C158.171 28.9721 158.417 29.011 158.754 29.011C158.962 29.011 159.17 29.011 159.377 28.998C159.585 28.985 159.792 28.9591 160 28.9072V31.1777C159.676 31.2166 159.351 31.2426 159.053 31.2815C158.741 31.3204 158.43 31.3334 158.106 31.3334C157.327 31.3334 156.704 31.2555 156.237 31.1128C155.77 30.9701 155.394 30.7495 155.135 30.4641C154.862 30.1787 154.693 29.8284 154.59 29.4002C154.499 28.9721 154.434 28.479 154.421 27.9341V20.0846H152.202V17.866H152.176Z" fill="white"></path><path d="M48.1996 12.7937H34.7581L30.6063 0.000976562L26.4415 12.7937L13 12.7808L23.8855 20.6952L19.7207 33.4749L30.6063 25.5735L41.4788 33.4749L37.327 20.6952L48.1996 12.7937Z" fill="#00B67A"></path><path d="M38.2609 23.5886L37.3267 20.6953L30.606 25.5737L38.2609 23.5886Z" fill="#005128"></path></g></g><defs><clipPath id="clip0_271_17780"><rect width="176" height="81" fill="white"></rect></clipPath><clipPath id="clip1_271_17780"><rect width="147" height="36.1986" fill="white" transform="translate(13)"></rect></clipPath></defs></svg> 